<svg version="1.1" id="Layer_1" xmlns="http://www.w3.org/2000/svg" xmlns:xlink="http://www.w3.org/1999/xlink" x="0px" y="0px"
	 width="100%" viewBox="0 0 500 500" enable-background="new 0 0 500 500" xml:space="preserve">
<path fill="#BE8A15" opacity="1.000000" stroke="none" 
	d="
M466.000000,1.000000 
	C471.688049,1.000000 477.376068,1.000000 483.532043,1.467854 
	C484.000000,168.290466 484.000000,334.645233 484.000000,501.000000 
	C478.645081,501.000000 473.290131,501.000000 467.467590,500.531342 
	C467.000000,447.477905 467.000000,394.893158 467.000000,342.308380 
	C467.000000,336.151306 466.743439,329.980042 467.082642,323.841705 
	C467.344482,319.103333 465.468536,317.606049 460.973053,317.940674 
	C457.001251,318.236267 452.990112,318.003265 448.580078,318.003235 
	C446.776306,318.000641 445.388763,317.998474 444.000793,317.528076 
	C444.000671,301.040680 444.000946,285.021545 444.333862,269.001038 
	C445.110016,268.998566 445.553528,268.997437 446.465698,268.998016 
	C450.600128,268.999115 454.265839,268.999573 457.931580,268.997681 
	C465.989929,268.993500 465.998505,268.993011 465.998688,260.934174 
	C466.000824,174.289444 466.000000,87.644722 466.000000,1.000000 
z"/>
<path fill="#0F0B02" opacity="1.000000" stroke="none" 
	d="
M48.000000,501.000000 
	C42.311958,501.000000 36.623920,501.000000 30.467939,500.531342 
	C30.000000,333.708466 30.000000,167.354233 30.000000,1.000000 
	C35.688042,1.000000 41.376080,1.000000 47.532055,1.468657 
	C47.998062,40.233871 47.996132,78.530426 47.756813,116.976547 
	C47.447418,117.830994 47.375408,118.535866 47.223831,119.754616 
	C47.096325,165.309875 46.990925,210.351395 47.088844,255.392471 
	C47.098701,259.925232 48.339058,264.455261 48.595772,269.012146 
	C47.455879,270.275787 46.109810,271.507050 46.096153,272.752930 
	C45.945023,286.536316 45.946716,300.322510 46.087761,314.106110 
	C46.101151,315.414429 47.337933,316.710236 48.004707,318.479797 
	C48.001781,379.631805 48.000893,440.315887 48.000000,501.000000 
z"/>
<path fill="#C48E16" opacity="1.000000" stroke="none" 
	d="
M484.469116,501.000000 
	C484.000000,334.645233 484.000000,168.290466 484.000000,1.467854 
	C489.662018,1.000000 495.324005,1.000000 500.962585,1.000000 
	C500.962585,167.666672 500.962585,334.333344 500.962585,501.000000 
	C495.596222,501.000000 490.267212,501.000000 484.469116,501.000000 
z"/>
<path fill="#080601" opacity="1.000000" stroke="none" 
	d="
M29.533138,1.000000 
	C30.000000,167.354233 30.000000,333.708466 30.000000,500.531342 
	C24.977907,501.000000 19.955816,501.000000 14.466846,500.533020 
	C13.999980,333.710693 13.999990,167.355347 14.000000,1.000000 
	C19.022093,1.000000 24.044184,1.000000 29.533138,1.000000 
z"/>
<path fill="#020200" opacity="1.000000" stroke="none" 
	d="
M13.526947,1.000000 
	C13.999990,167.355347 13.999980,333.710693 13.999985,500.533020 
	C9.670345,501.000000 5.340692,501.000000 1.032017,501.000000 
	C1.032017,334.333344 1.032017,167.666656 1.032017,1.000000 
	C5.060654,1.000000 9.057274,1.000000 13.526947,1.000000 
z"/>
<path fill="#7D5B0E" opacity="1.000000" stroke="none" 
	d="
M302.000000,1.000000 
	C309.354248,1.000000 316.708496,1.000000 324.531372,1.468657 
	C325.000000,84.520782 324.991455,167.104263 325.041992,249.687698 
	C325.043488,252.125854 325.666931,254.563614 325.887024,257.316986 
	C322.547760,261.354919 319.321869,265.077423 315.923645,269.195892 
	C315.515137,270.381042 315.076019,271.169525 315.073029,271.959656 
	C315.020935,285.745453 314.998047,299.531525 315.059296,313.317139 
	C315.064056,314.388916 315.411896,315.892273 316.158417,316.456360 
	C320.524780,319.755768 319.410980,324.833710 319.554260,328.899231 
	C319.954437,340.251984 319.257141,351.643433 318.598328,362.885132 
	C315.469086,362.505737 312.734619,362.260773 310.000061,361.546143 
	C310.000000,348.760437 310.010071,336.444397 309.986877,324.128448 
	C309.984070,322.640808 310.276184,320.890015 309.621826,319.710358 
	C306.265717,313.659943 307.033752,307.127838 307.007721,300.679993 
	C306.975464,292.691345 306.892792,284.700195 307.064667,276.715149 
	C307.117004,274.284271 307.911285,271.864258 308.415375,269.449646 
	C308.910767,267.076691 309.917908,264.719269 309.930267,262.350983 
	C310.047485,239.883194 310.000336,217.414536 310.370300,194.778198 
	C313.474609,194.334442 316.209167,194.058624 318.943695,193.782806 
	C318.911865,193.117584 318.880066,192.452377 318.848236,191.787170 
	C313.230164,191.787170 307.612091,191.787170 301.994843,191.331848 
	C301.997131,127.584358 301.998566,64.292183 302.000000,1.000000 
z"/>
<path fill="#AF7F13" opacity="1.000000" stroke="none" 
	d="
M445.997040,268.996338 
	C445.553528,268.997437 445.110016,268.998566 443.879700,268.999542 
	C440.063141,269.000824 437.033417,269.002258 433.574707,269.002289 
	C431.429657,268.999786 429.713623,268.998657 428.058075,268.583679 
	C428.412415,265.713684 428.961761,263.257721 428.963013,260.801483 
	C429.007233,174.201004 429.000000,87.600502 429.000000,1.000000 
	C435.021149,1.000000 441.042297,1.000000 447.531738,1.436102 
	C447.748932,9.523528 447.335938,17.174017 447.296448,24.826433 
	C447.263000,31.308159 447.757263,37.790863 447.841736,44.275433 
	C447.924347,50.616604 447.809784,56.960979 447.734406,63.303391 
	C447.657379,69.783180 447.471100,76.261932 447.427185,82.741783 
	C447.378876,89.877510 447.409882,97.014168 447.459198,104.150047 
	C447.504028,110.629677 447.661316,117.108620 447.693085,123.588234 
	C447.725739,130.251526 447.677185,136.915329 447.644257,143.578796 
	C447.612213,150.058197 447.495544,156.537720 447.525024,163.016693 
	C447.555359,169.678757 447.823547,176.340744 447.791626,183.001816 
	C447.760590,189.483826 447.333374,195.965057 447.351929,202.445847 
	C447.370972,209.099884 447.909180,215.753876 447.877136,222.406235 
	C447.832611,231.648376 447.563446,240.892639 447.208069,250.128967 
	C446.965851,256.424316 446.411682,262.707642 445.997040,268.996338 
z"/>
<path fill="#B68414" opacity="1.000000" stroke="none" 
	d="
M446.465698,268.998016 
	C446.411682,262.707642 446.965851,256.424316 447.208069,250.128967 
	C447.563446,240.892639 447.832611,231.648376 447.877136,222.406235 
	C447.909180,215.753876 447.370972,209.099884 447.351929,202.445847 
	C447.333374,195.965057 447.760590,189.483826 447.791626,183.001816 
	C447.823547,176.340744 447.555359,169.678757 447.525024,163.016693 
	C447.495544,156.537720 447.612213,150.058197 447.644257,143.578796 
	C447.677185,136.915329 447.725739,130.251526 447.693085,123.588234 
	C447.661316,117.108620 447.504028,110.629677 447.459198,104.150047 
	C447.409882,97.014168 447.378876,89.877510 447.427185,82.741783 
	C447.471100,76.261932 447.657379,69.783180 447.734406,63.303391 
	C447.809784,56.960979 447.924347,50.616604 447.841736,44.275433 
	C447.757263,37.790863 447.263000,31.308159 447.296448,24.826433 
	C447.335938,17.174017 447.748932,9.523528 448.000000,1.436102 
	C453.688049,1.000000 459.376068,1.000000 465.532043,1.000000 
	C466.000000,87.644722 466.000824,174.289444 465.998688,260.934174 
	C465.998505,268.993011 465.989929,268.993500 457.931580,268.997681 
	C454.265839,268.999573 450.600128,268.999115 446.465698,268.998016 
z"/>
<path fill="#3E2D07" opacity="1.000000" stroke="none" 
	d="
M146.000000,1.000000 
	C151.688034,1.000000 157.376083,1.000000 163.583252,1.384876 
	C164.131271,4.516033 164.177933,7.262263 164.185638,10.008603 
	C164.206039,17.277220 164.208221,24.545885 164.220230,31.814529 
	C164.230423,37.979248 164.182098,44.144875 164.273270,50.308422 
	C164.371460,56.946083 164.742844,63.581955 164.735001,70.218300 
	C164.727158,76.853798 164.246445,83.489037 164.251831,90.124161 
	C164.257233,96.759605 164.767456,103.394890 164.762070,110.030006 
	C164.756683,116.665466 164.218872,123.300758 164.224274,129.935867 
	C164.229660,136.571350 164.795044,143.206635 164.789658,149.841751 
	C164.784256,156.477219 164.191238,163.112534 164.196640,169.747620 
	C164.202042,176.383118 164.822647,183.018402 164.817261,189.653503 
	C164.811874,196.288986 164.239227,202.922363 164.145920,209.559891 
	C164.041458,216.992599 164.014862,224.436905 164.340103,231.859253 
	C164.447906,234.319504 165.750809,236.727371 166.414093,239.534698 
	C164.206207,245.947815 162.091553,251.985397 159.604019,259.087646 
	C154.040588,245.173141 148.906967,232.333618 143.991776,219.132935 
	C144.806808,216.468170 145.921707,214.165222 145.924728,211.860825 
	C146.016998,141.573959 146.000000,71.286972 146.000000,1.000000 
z"/>
<path fill="#73540D" opacity="1.000000" stroke="none" 
	d="
M301.531372,1.000000 
	C301.998566,64.292183 301.997131,127.584358 301.531769,191.406006 
	C293.376984,191.886108 285.686096,191.836731 277.995697,191.364563 
	C278.275696,188.478714 278.823730,186.011887 278.789276,183.553223 
	C278.621124,171.548035 278.181396,159.546173 278.059998,147.540894 
	C277.925537,134.241852 277.929932,120.939369 278.063446,107.640282 
	C278.183990,95.634850 278.766327,83.631996 278.766174,71.628006 
	C278.765991,59.624680 278.201416,47.622482 278.059387,35.617718 
	C277.922852,24.079859 278.010712,12.539346 278.000000,1.000000 
	C285.687592,1.000000 293.375153,1.000000 301.531372,1.000000 
z"/>
<path fill="#85610F" opacity="1.000000" stroke="none" 
	d="
M326.000397,257.001556 
	C325.666931,254.563614 325.043488,252.125854 325.041992,249.687698 
	C324.991455,167.104263 325.000000,84.520782 325.000000,1.468657 
	C330.354919,1.000000 335.709869,1.000000 341.532410,1.468657 
	C342.000000,77.541466 341.999939,153.145615 342.000549,228.749771 
	C342.000580,230.081970 341.665741,231.542496 342.103760,232.712219 
	C342.595367,234.024902 343.788788,235.074738 344.506409,236.548157 
	C338.224030,243.572113 332.112213,250.286835 326.000397,257.001556 
z"/>
<path fill="#362706" opacity="1.000000" stroke="none" 
	d="
M145.531464,1.000000 
	C146.000000,71.286972 146.016998,141.573959 145.924728,211.860825 
	C145.921707,214.165222 144.806808,216.468170 143.722504,218.873230 
	C136.611252,202.730011 129.987732,186.485321 123.737106,169.985748 
	C124.406677,167.639572 124.960594,165.548538 124.962425,163.457001 
	C125.009941,109.304695 125.000000,55.152344 125.000000,1.000000 
	C131.687637,1.000000 138.375290,1.000000 145.531464,1.000000 
z"/>
<path fill="#62470B" opacity="1.000000" stroke="none" 
	d="
M253.000000,501.000000 
	C249.637894,501.000000 246.275803,501.000000 242.456848,500.531342 
	C242.000000,491.901245 242.000000,483.739807 242.000000,475.578369 
	C242.000000,425.443787 242.011368,375.309204 241.974442,325.174652 
	C241.971985,321.835052 242.128433,319.084106 246.053085,317.602356 
	C247.473557,317.066071 248.836380,314.285583 248.870148,312.503448 
	C249.109848,299.849426 249.108490,287.186707 248.874023,274.532471 
	C248.840393,272.716705 247.576431,269.979004 246.128296,269.317444 
	C242.308640,267.572449 241.938873,264.858215 241.945831,261.258484 
	C242.029572,217.953018 242.018448,174.647293 241.957092,131.341766 
	C241.953140,128.554413 241.333130,125.767937 241.199234,122.664955 
	C246.270905,121.442467 251.143036,120.536064 256.011108,120.121521 
	C256.003174,144.338348 255.999359,168.063324 255.538574,191.863678 
	C251.693573,191.939056 248.305496,191.939056 244.917435,191.939056 
	C244.890121,192.528793 244.862808,193.118530 244.835510,193.708252 
	C247.225784,194.084702 249.616074,194.461136 252.004669,195.317398 
	C252.002213,216.961227 252.052673,238.125488 251.956543,259.289062 
	C251.937714,263.432922 252.072632,267.129364 256.062103,269.799408 
	C257.246979,270.592438 257.897339,272.947540 257.916718,274.597168 
	C258.065430,287.260468 258.108765,299.928375 257.876678,312.589203 
	C257.842499,314.453217 256.656952,317.001312 255.175766,317.982849 
	C252.320023,319.875275 251.934784,322.185547 251.959167,325.186127 
	C252.059219,337.491241 252.002274,349.797607 251.635590,362.264099 
	C249.111618,362.697388 246.955185,362.970123 244.798752,363.242828 
	C244.845551,363.739166 244.892365,364.235504 244.939163,364.731873 
	C247.625198,364.877502 250.311234,365.023163 252.998093,365.626892 
	C252.999268,411.056641 252.999634,456.028320 253.000000,501.000000 
M248.000839,329.266632 
	C248.158218,329.011963 248.315613,328.757263 248.472977,328.502563 
	C248.219254,328.662323 247.965530,328.822083 248.000839,329.266632 
z"/>
<path fill="#6A4D0C" opacity="1.000000" stroke="none" 
	d="
M255.995514,191.788300 
	C255.999359,168.063324 256.003174,144.338348 256.287720,119.990082 
	C257.236328,119.006149 257.904297,118.645508 258.572235,118.284874 
	C258.046661,117.784561 257.521088,117.284241 256.996063,116.328819 
	C256.997742,77.582474 256.998871,39.291237 257.000000,1.000000 
	C263.687653,1.000000 270.375275,1.000000 277.531433,1.000000 
	C278.010712,12.539346 277.922852,24.079859 278.059387,35.617718 
	C278.201416,47.622482 278.765991,59.624680 278.766174,71.628006 
	C278.766327,83.631996 278.183990,95.634850 278.063446,107.640282 
	C277.929932,120.939369 277.925537,134.241852 278.059998,147.540894 
	C278.181396,159.546173 278.621124,171.548035 278.789276,183.553223 
	C278.823730,186.011887 278.275696,188.478714 277.532745,191.439667 
	C270.044708,191.887817 263.020111,191.838058 255.995514,191.788300 
z"/>
<path fill="#A87A12" opacity="1.000000" stroke="none" 
	d="
M428.533875,1.000000 
	C429.000000,87.600502 429.007233,174.201004 428.963013,260.801483 
	C428.961761,263.257721 428.412415,265.713684 427.629974,268.584045 
	C425.427979,269.000092 423.714600,269.001862 421.551086,269.002197 
	C418.400238,269.000122 415.699524,268.999451 413.012207,268.576416 
	C413.350433,265.198639 413.957245,262.243408 413.958984,259.287811 
	C414.009674,173.191895 414.000000,87.095947 414.000000,1.000000 
	C418.689240,1.000000 423.378510,1.000000 428.533875,1.000000 
z"/>
<path fill="#453208" opacity="1.000000" stroke="none" 
	d="
M166.507309,239.159195 
	C165.750809,236.727371 164.447906,234.319504 164.340103,231.859253 
	C164.014862,224.436905 164.041458,216.992599 164.145920,209.559891 
	C164.239227,202.922363 164.811874,196.288986 164.817261,189.653503 
	C164.822647,183.018402 164.202042,176.383118 164.196640,169.747620 
	C164.191238,163.112534 164.784256,156.477219 164.789658,149.841751 
	C164.795044,143.206635 164.229660,136.571350 164.224274,129.935867 
	C164.218872,123.300758 164.756683,116.665466 164.762070,110.030006 
	C164.767456,103.394890 164.257233,96.759605 164.251831,90.124161 
	C164.246445,83.489037 164.727158,76.853798 164.735001,70.218300 
	C164.742844,63.581955 164.371460,56.946083 164.273270,50.308422 
	C164.182098,44.144875 164.230423,37.979248 164.220230,31.814529 
	C164.208221,24.545885 164.206039,17.277220 164.185638,10.008603 
	C164.177933,7.262263 164.131271,4.516033 164.051193,1.384876 
	C169.354935,1.000000 174.709854,1.000000 180.532394,1.468657 
	C181.000000,63.650562 180.986694,125.363823 181.049515,187.077011 
	C181.051987,189.501709 181.781616,191.925674 182.154785,194.713104 
	C176.927200,209.770538 171.717255,224.464874 166.507309,239.159195 
z"/>
<path fill="#382906" opacity="1.000000" stroke="none" 
	d="
M150.000000,501.000000 
	C143.978851,501.000000 137.957703,501.000000 131.468277,500.531342 
	C131.000000,447.979828 130.987442,395.897003 131.042297,343.814178 
	C131.044693,341.543671 131.665756,339.273834 132.271545,336.730469 
	C134.191040,334.612915 130.818634,330.121094 135.925598,330.449860 
	C136.099945,331.929382 136.251755,333.049194 136.403564,334.168976 
	C136.941910,333.977997 137.480240,333.787018 138.018570,333.596039 
	C137.375641,332.367798 136.732697,331.139587 136.022812,329.621643 
	C134.634369,329.199890 133.312866,329.067841 131.932709,328.533783 
	C131.584991,324.756561 131.295959,321.381348 131.470749,318.005310 
	C136.288498,318.001770 140.642426,317.999054 145.425354,317.997742 
	C147.570801,318.000641 149.287231,318.002167 151.002594,318.463745 
	C151.001007,328.006439 151.000107,337.089020 151.000076,346.171631 
	C150.999924,392.991394 151.028854,439.811157 150.956253,486.630829 
	C150.948822,491.421021 150.333344,496.210297 150.000000,501.000000 
z"/>
<path fill="#5E450B" opacity="1.000000" stroke="none" 
	d="
M240.999695,122.981049 
	C241.333130,125.767937 241.953140,128.554413 241.957092,131.341766 
	C242.018448,174.647293 242.029572,217.953018 241.945831,261.258484 
	C241.938873,264.858215 242.308640,267.572449 246.128296,269.317444 
	C247.576431,269.979004 248.840393,272.716705 248.874023,274.532471 
	C249.108490,287.186707 249.109848,299.849426 248.870148,312.503448 
	C248.836380,314.285583 247.473557,317.066071 246.053085,317.602356 
	C242.128433,319.084106 241.971985,321.835052 241.974442,325.174652 
	C242.011368,375.309204 242.000000,425.443787 242.000000,475.578369 
	C242.000000,483.739807 242.000000,491.901245 242.000000,500.531342 
	C238.307098,501.000000 234.614182,501.000000 230.460632,500.531342 
	C230.000000,450.585388 230.074097,401.107849 229.910416,351.631104 
	C229.888870,345.120087 228.651657,338.613098 228.215424,331.914429 
	C228.621613,331.158844 228.789841,330.593109 228.973846,330.008545 
	C228.989639,329.989777 229.026978,329.957947 229.396317,329.980225 
	C231.020630,329.884918 232.275589,329.767334 234.738815,329.536591 
	C232.225052,328.699432 231.106033,328.326752 229.990799,327.519989 
	C229.506149,322.401062 230.061691,318.594177 235.815399,317.328979 
	C237.163010,317.032623 238.405350,314.311493 238.876343,312.493561 
	C239.401947,310.464874 238.993286,308.194122 239.216553,305.844421 
	C239.283691,304.747040 239.125519,303.833954 238.977081,302.474426 
	C238.984543,299.047943 238.982254,296.067932 239.345276,293.112549 
	C241.250107,295.164398 242.789642,297.191681 244.329178,299.218933 
	C244.701126,299.070007 245.073074,298.921082 245.445023,298.772156 
	C243.963089,295.848969 242.481171,292.925781 241.167191,289.620056 
	C241.556747,285.474548 241.594849,281.689545 242.044250,277.953979 
	C242.674637,272.713928 240.702438,269.344513 235.627716,267.377869 
	C235.633255,224.786926 235.628876,182.653854 235.648727,140.520767 
	C235.650055,137.693283 235.237091,134.669708 236.084915,132.088120 
	C237.144302,128.862320 239.311050,126.000183 240.999695,122.981049 
M234.090973,334.294830 
	C234.517517,334.625702 234.944061,334.956604 235.370605,335.287476 
	C235.366562,334.413086 235.362534,333.538696 235.358490,332.664307 
	C234.934967,332.999298 234.511444,333.334290 234.090973,334.294830 
M242.958847,302.310669 
	C242.926544,301.981812 242.894241,301.652954 242.861938,301.324097 
	C242.753586,301.676392 242.645248,302.028687 242.958847,302.310669 
z"/>
<path fill="#A37612" opacity="1.000000" stroke="none" 
	d="
M413.536804,1.000000 
	C414.000000,87.095947 414.009674,173.191895 413.958984,259.287811 
	C413.957245,262.243408 413.350433,265.198639 412.637573,268.577026 
	C411.500031,269.002014 410.750641,269.004059 409.557007,269.003906 
	C406.743073,269.002380 404.373383,269.003021 401.669373,269.002563 
	C400.889343,269.000275 400.443604,268.999054 400.049316,268.612244 
	C400.733826,265.013702 401.837646,261.811737 401.912781,258.585846 
	C402.149445,248.426590 402.053802,238.257980 401.985657,228.093658 
	C401.909760,216.773895 401.722931,205.454880 401.458984,193.940308 
	C401.222626,193.150284 401.111664,192.555466 401.000244,191.494476 
	C400.999847,127.685516 400.999939,64.342758 401.000000,1.000000 
	C405.024536,1.000000 409.049103,1.000000 413.536804,1.000000 
z"/>
<path fill="#8B650F" opacity="1.000000" stroke="none" 
	d="
M344.676880,236.238922 
	C343.788788,235.074738 342.595367,234.024902 342.103760,232.712219 
	C341.665741,231.542496 342.000580,230.081970 342.000549,228.749771 
	C341.999939,153.145615 342.000000,77.541466 342.000000,1.468657 
	C346.689240,1.000000 351.378510,1.000000 356.533875,1.468657 
	C356.998962,65.230850 356.997894,128.524384 356.541718,191.885284 
	C352.761993,191.952667 349.437408,191.952667 346.112823,191.952667 
	C346.034760,192.645767 345.956726,193.338867 345.878662,194.031952 
	C348.917664,194.404327 351.956696,194.776688 354.997131,195.608078 
	C355.050323,205.524796 355.102051,214.982468 355.027405,224.738602 
	C351.492950,228.771011 348.084900,232.504974 344.676880,236.238922 
z"/>
<path fill="#302305" opacity="1.000000" stroke="none" 
	d="
M131.998627,337.003662 
	C131.665756,339.273834 131.044693,341.543671 131.042297,343.814178 
	C130.987442,395.897003 131.000000,447.979828 131.000000,500.531342 
	C125.311958,501.000000 119.623917,501.000000 113.467941,500.531342 
	C113.000710,439.376343 113.001427,378.690002 113.334679,318.002106 
	C114.110664,317.999146 114.554115,317.997742 115.463943,317.998627 
	C120.618591,317.998993 125.306854,317.997040 130.248077,317.997375 
	C130.669647,318.001831 130.838287,318.003967 131.006912,318.006104 
	C131.295959,321.381348 131.584991,324.756561 131.922165,328.985077 
	C131.979736,332.226776 131.989182,334.615234 131.998627,337.003662 
z"/>
<path fill="#B08013" opacity="1.000000" stroke="none" 
	d="
M444.001221,317.996338 
	C445.388763,317.998474 446.776306,318.000641 448.594604,318.425232 
	C449.350220,321.803955 449.955231,324.759949 449.958405,327.716583 
	C450.015625,380.689056 450.025635,433.661682 449.956482,486.634125 
	C449.950256,491.423157 449.333344,496.211395 449.000000,501.000000 
	C443.645081,501.000000 438.290131,501.000000 432.467590,500.531342 
	C431.998779,439.376343 431.997559,378.690002 432.372284,318.002258 
	C433.500031,317.999298 434.251862,317.997711 435.453430,317.996521 
	C438.602539,317.996704 441.301880,317.996521 444.001221,317.996338 
z"/>
<path fill="#2E2106" opacity="1.000000" stroke="none" 
	d="
M124.531418,1.000000 
	C125.000000,55.152344 125.009941,109.304695 124.962425,163.457001 
	C124.960594,165.548538 124.406677,167.639572 123.557343,169.696381 
	C115.939804,152.253906 108.874954,134.845901 101.897926,116.998245 
	C102.323936,114.113235 102.952431,111.668373 102.956711,109.222412 
	C103.019882,73.148361 103.000107,37.074162 103.000000,1.000000 
	C110.020950,1.000000 117.041893,1.000000 124.531418,1.000000 
z"/>
<path fill="#B78514" opacity="1.000000" stroke="none" 
	d="
M449.467957,501.000000 
	C449.333344,496.211395 449.950256,491.423157 449.956482,486.634125 
	C450.025635,433.661682 450.015625,380.689056 449.958405,327.716583 
	C449.955231,324.759949 449.350220,321.803955 449.010834,318.425659 
	C452.990112,318.003265 457.001251,318.236267 460.973053,317.940674 
	C465.468536,317.606049 467.344482,319.103333 467.082642,323.841705 
	C466.743439,329.980042 467.000000,336.151306 467.000000,342.308380 
	C467.000000,394.893158 467.000000,447.477905 467.000000,500.531342 
	C461.311951,501.000000 455.623932,501.000000 449.467957,501.000000 
z"/>
<path fill="#1D1504" opacity="1.000000" stroke="none" 
	d="
M82.000000,501.000000 
	C76.645073,501.000000 71.290138,501.000000 65.467636,500.531342 
	C65.002327,439.378723 65.004578,378.694763 65.470680,318.008362 
	C70.287407,318.000702 74.640282,317.995483 79.369553,317.993164 
	C80.498901,318.000275 81.251862,318.004425 82.003357,318.476685 
	C82.001266,379.629852 82.000633,440.314941 82.000000,501.000000 
z"/>
<path fill="#161002" opacity="1.000000" stroke="none" 
	d="
M65.006828,318.010803 
	C65.004578,378.694763 65.002327,439.378723 65.000031,500.531342 
	C59.645069,501.000000 54.290142,501.000000 48.467606,501.000000 
	C48.000893,440.315887 48.001781,379.631805 48.468536,318.476929 
	C53.287174,318.000488 57.639950,317.994812 62.369545,317.993103 
	C63.499855,318.001648 64.253342,318.006226 65.006828,318.010803 
z"/>
<path fill="#402E07" opacity="1.000000" stroke="none" 
	d="
M150.467941,501.000000 
	C150.333344,496.210297 150.948822,491.421021 150.956253,486.630829 
	C151.028854,439.811157 150.999924,392.991394 151.000076,346.171631 
	C151.000107,337.089020 151.001007,328.006439 151.446213,318.463135 
	C154.259796,318.000549 156.628677,317.998688 159.447815,317.998077 
	C162.599121,317.999969 165.300171,318.000610 168.000885,318.444885 
	C167.413132,323.209290 166.355148,327.531281 166.367142,331.850311 
	C166.379791,336.409882 167.912872,340.965424 167.923477,345.524719 
	C168.043991,397.349609 168.000000,449.174835 168.000000,501.000000 
	C162.311966,501.000000 156.623917,501.000000 150.467941,501.000000 
z"/>
<path fill="#291E05" opacity="1.000000" stroke="none" 
	d="
M113.002136,318.003662 
	C113.001427,378.690002 113.000710,439.376343 113.000000,500.531342 
	C107.645073,501.000000 102.290138,501.000000 96.467606,500.531342 
	C96.000000,444.160065 95.975533,388.257416 96.043640,332.354889 
	C96.049469,327.571991 96.670723,322.789825 97.472321,318.005981 
	C102.959755,318.004303 107.980942,318.003998 113.002136,318.003662 
M105.548203,333.703064 
	C105.701408,334.386475 105.854607,335.069916 106.007812,335.753326 
	C106.244087,335.743500 106.480362,335.733643 106.716637,335.723785 
	C106.792778,334.858582 106.868919,333.993347 106.987961,332.424408 
	C106.994576,331.954407 107.001190,331.484436 106.950592,330.384277 
	C105.395081,328.118652 104.168526,328.060425 102.986786,330.531464 
	C102.986786,330.531464 102.998184,330.870056 102.646378,331.108185 
	C102.765144,331.433807 102.883919,331.759460 102.999924,332.541748 
	C102.999924,332.541748 102.997429,332.998444 102.547279,333.338562 
	C102.506721,333.853271 102.466164,334.367981 102.425613,334.882690 
	C102.582314,334.885834 102.739014,334.888947 102.895714,334.892090 
	C102.931442,334.262207 102.967171,333.632324 103.668312,333.000732 
	C104.330109,332.977173 104.991905,332.953644 105.548203,333.703064 
z"/>
<path fill="#986E11" opacity="1.000000" stroke="none" 
	d="
M372.000000,1.000000 
	C377.022095,1.000000 382.044189,1.000000 387.533142,1.468657 
	C387.998749,65.216248 387.997498,128.495178 387.534363,191.844666 
	C382.047150,191.882736 377.021881,191.850281 371.997681,191.360565 
	C371.999146,127.602226 371.999573,64.301109 372.000000,1.000000 
z"/>
<path fill="#59400A" opacity="1.000000" stroke="none" 
	d="
M238.979980,293.087952 
	C238.982254,296.067932 238.984543,299.047943 238.613068,302.477539 
	C236.826416,302.617737 235.413513,302.308258 233.965973,301.719666 
	C233.630463,301.123840 233.329605,300.807129 233.028748,300.490448 
	C232.851578,300.695587 232.674408,300.900757 232.497238,301.105896 
	C232.997955,301.404205 233.498672,301.702515 234.010818,302.367798 
	C235.678589,303.832733 237.334930,304.930756 238.991272,306.028748 
	C238.993286,308.194122 239.401947,310.464874 238.876343,312.493561 
	C238.405350,314.311493 237.163010,317.032623 235.815399,317.328979 
	C230.061691,318.594177 229.506149,322.401062 229.750031,327.692963 
	C229.345963,328.852661 229.186478,329.405304 229.026978,329.957947 
	C229.026978,329.957947 228.989639,329.989777 228.679260,330.027344 
	C228.238434,330.744659 228.107956,331.424469 227.977493,332.104248 
	C228.651657,338.613098 229.888870,345.120087 229.910416,351.631104 
	C230.074097,401.107849 230.000000,450.585388 230.000000,500.531342 
	C225.643097,501.000000 221.286194,501.000000 216.464645,500.531342 
	C216.000000,475.422485 216.000015,450.782257 216.000000,426.142059 
	C215.999985,398.505066 216.032440,370.867950 215.931976,343.231323 
	C215.924728,341.238495 214.948166,339.249207 214.272415,336.690887 
	C213.773529,337.008911 215.020325,336.577423 215.017929,336.152954 
	C215.007416,334.287231 214.636032,332.423553 214.395477,330.559143 
	C213.623962,331.020538 212.852432,331.481934 212.045532,331.973114 
	C212.010132,332.002869 211.949585,332.072754 211.710464,331.819580 
	C211.472046,330.945007 211.386612,329.794373 211.485840,329.778259 
	C215.813873,329.073730 215.787064,325.955017 216.350266,322.516663 
	C216.631973,320.796967 219.418961,318.449768 221.290848,318.228149 
	C226.365158,317.627472 228.077347,315.137238 228.038773,310.360413 
	C227.927826,296.615570 227.998535,282.869293 228.425354,269.039429 
	C230.881683,268.912994 232.910553,268.870758 234.967102,269.261536 
	C235.328842,276.453583 235.662903,283.212555 235.998215,290.346741 
	C236.992981,291.510590 237.986481,292.299286 238.979980,293.087952 
M233.340012,295.632233 
	C233.294144,295.321442 233.248276,295.010651 233.202408,294.699860 
	C233.115524,295.029266 233.028625,295.358673 233.340012,295.632233 
z"/>
<path fill="#A97A13" opacity="1.000000" stroke="none" 
	d="
M431.996338,318.003662 
	C431.997559,378.690002 431.998779,439.376343 432.000000,500.531342 
	C426.977905,501.000000 421.955811,501.000000 416.466858,500.531342 
	C415.999176,439.375946 415.998352,378.689178 416.426422,318.001160 
	C418.571014,317.998322 420.286713,317.996796 422.456360,317.996155 
	C425.938965,317.999268 428.967651,318.001465 431.996338,318.003662 
z"/>
<path fill="#815E0F" opacity="1.000000" stroke="none" 
	d="
M318.993073,363.019592 
	C319.257141,351.643433 319.954437,340.251984 319.554260,328.899231 
	C319.410980,324.833710 320.524780,319.755768 316.158417,316.456360 
	C315.411896,315.892273 315.064056,314.388916 315.059296,313.317139 
	C314.998047,299.531525 315.020935,285.745453 315.073029,271.959656 
	C315.076019,271.169525 315.515137,270.381042 316.353394,269.238983 
	C318.969788,268.968201 320.984039,269.050262 322.998871,269.592255 
	C322.999817,275.289307 322.852203,280.533356 323.096222,285.759125 
	C323.164093,287.212128 324.392120,288.610992 325.070862,290.358215 
	C325.063934,291.113983 325.074066,291.546234 324.798309,292.110748 
	C323.671387,293.159241 322.830322,294.075470 321.704315,295.028748 
	C321.277374,295.712006 321.135376,296.358215 321.209839,297.282776 
	C322.943634,299.723816 324.460999,301.886536 325.969116,304.279907 
	C325.959869,304.510529 325.927307,304.971039 325.548492,305.042114 
	C322.060211,308.385834 321.767395,314.957275 325.311646,317.340637 
	C328.683258,319.607819 329.041565,322.337067 329.038300,325.826080 
	C328.984619,384.217377 329.000000,442.608673 329.000000,501.000000 
	C324.310760,501.000000 319.621490,501.000000 314.466125,500.531342 
	C313.998627,455.097839 313.997253,410.133026 314.394470,365.093842 
	C316.193085,364.352875 317.593079,363.686249 318.993073,363.019592 
z"/>
<path fill="#916910" opacity="1.000000" stroke="none" 
	d="
M371.533875,1.000000 
	C371.999573,64.301109 371.999146,127.602226 371.535950,191.427582 
	C366.381042,191.907196 361.688965,191.862549 356.996857,191.817902 
	C356.997894,128.524384 356.998962,65.230850 357.000000,1.468657 
	C361.689240,1.000000 366.378510,1.000000 371.533875,1.000000 
z"/>
<path fill="#906810" opacity="1.000000" stroke="none" 
	d="
M370.000000,501.000000 
	C363.978851,501.000000 357.957703,501.000000 351.468262,500.531342 
	C351.000000,465.243500 350.980743,430.424347 351.007843,395.605164 
	C351.022095,377.281372 351.117340,358.957672 351.468262,340.822449 
	C356.847839,348.354279 361.849060,355.779236 369.992249,360.679199 
	C369.995880,407.755829 369.997925,454.377930 370.000000,501.000000 
z"/>
<path fill="#A37612" opacity="1.000000" stroke="none" 
	d="
M415.997559,318.002441 
	C415.998352,378.689178 415.999176,439.375946 416.000000,500.531342 
	C411.643097,501.000000 407.286194,501.000000 402.464661,500.531342 
	C401.999146,455.098450 401.998291,410.134186 402.430664,365.098724 
	C405.196014,365.027496 407.528107,365.027496 411.197845,365.027496 
	C406.212372,361.835724 402.568451,359.502838 399.095154,356.775177 
	C399.510498,354.420868 399.954529,352.462585 399.966888,350.501587 
	C400.035248,339.668884 399.998352,328.835571 400.373322,318.001617 
	C401.500610,317.999298 402.252136,317.997803 403.447479,317.996948 
	C406.261261,317.996735 408.631256,317.995911 411.417633,317.996216 
	C413.221893,317.999054 414.609711,318.000732 415.997559,318.002441 
z"/>
<path fill="#231A04" opacity="1.000000" stroke="none" 
	d="
M97.006088,318.007324 
	C96.670723,322.789825 96.049469,327.571991 96.043640,332.354889 
	C95.975533,388.257416 96.000000,444.160065 96.000000,500.531342 
	C91.643097,501.000000 87.286201,501.000000 82.464645,501.000000 
	C82.000633,440.314941 82.001266,379.629852 82.465973,318.474548 
	C86.951271,318.000854 90.972496,317.997375 95.329071,317.996033 
	C96.111649,318.001251 96.558868,318.004272 97.006088,318.007324 
z"/>
<path fill="#543D09" opacity="1.000000" stroke="none" 
	d="
M227.997864,269.123566 
	C227.998535,282.869293 227.927826,296.615570 228.038773,310.360413 
	C228.077347,315.137238 226.365158,317.627472 221.290848,318.228149 
	C219.418961,318.449768 216.631973,320.796967 216.350266,322.516663 
	C215.787064,325.955017 215.813873,329.073730 211.485840,329.778259 
	C211.386612,329.794373 211.472046,330.945007 211.781860,331.936462 
	C212.181595,332.342255 212.270798,332.377991 212.360016,332.413727 
	C212.266968,332.256927 212.173935,332.100128 212.080902,331.943359 
	C212.852432,331.481934 213.623962,331.020538 214.395477,330.559143 
	C214.636032,332.423553 215.007416,334.287231 215.017929,336.152954 
	C215.020325,336.577423 213.773529,337.008911 214.272415,336.690887 
	C214.948166,339.249207 215.924728,341.238495 215.931976,343.231323 
	C216.032440,370.867950 215.999985,398.505066 216.000000,426.142059 
	C216.000015,450.782257 216.000000,475.422485 216.000000,500.531342 
	C212.638718,501.000000 209.277420,501.000000 205.458069,500.531342 
	C205.000000,444.158325 204.975662,388.253967 205.043396,332.349701 
	C205.049194,327.566498 205.667084,322.784027 206.375443,318.000854 
	C207.499985,317.999908 208.249680,317.999359 209.431396,317.999329 
	C217.644485,317.965881 217.997101,317.617462 217.998947,309.851074 
	C218.002167,296.275269 217.998962,282.699463 218.446152,269.039642 
	C221.928528,269.011597 224.963196,269.067596 227.997864,269.123566 
z"/>
<path fill="#9E7211" opacity="1.000000" stroke="none" 
	d="
M387.996277,191.774109 
	C387.997498,128.495178 387.998749,65.216248 388.000000,1.468657 
	C392.024536,1.000000 396.049103,1.000000 400.536804,1.000000 
	C400.999939,64.342758 400.999847,127.685516 400.536865,191.486298 
	C396.048065,191.887589 392.022186,191.830841 387.996277,191.774109 
z"/>
<path fill="#463308" opacity="1.000000" stroke="none" 
	d="
M168.463181,501.000000 
	C168.000000,449.174835 168.043991,397.349609 167.923477,345.524719 
	C167.912872,340.965424 166.379791,336.409882 166.367142,331.850311 
	C166.355148,327.531281 167.413132,323.209290 168.400543,318.444519 
	C169.866409,317.999512 170.932297,317.998535 172.452515,317.998718 
	C175.938232,318.000336 178.969620,318.000763 181.998566,318.428772 
	C181.664093,327.877136 181.060867,336.897430 181.044785,345.918793 
	C180.952667,397.612366 181.000000,449.306244 181.000000,501.000000 
	C176.975449,501.000000 172.950912,501.000000 168.463181,501.000000 
z"/>
<path fill="#88630F" opacity="1.000000" stroke="none" 
	d="
M351.175995,340.633911 
	C351.117340,358.957672 351.022095,377.281372 351.007843,395.605164 
	C350.980743,430.424347 351.000000,465.243500 351.000000,500.531342 
	C346.643097,501.000000 342.286194,501.000000 337.464661,500.531342 
	C337.000000,442.914093 336.977631,385.765411 337.097260,328.617096 
	C337.101227,326.707672 338.540771,324.801300 339.583679,323.076935 
	C343.629425,329.051544 347.402710,334.842743 351.175995,340.633911 
z"/>
<path fill="#4B3608" opacity="1.000000" stroke="none" 
	d="
M181.463181,501.000000 
	C181.000000,449.306244 180.952667,397.612366 181.044785,345.918793 
	C181.060867,336.897430 181.664093,327.877136 182.373276,318.428345 
	C183.499878,317.999817 184.249329,317.999298 185.448914,317.999451 
	C188.599762,318.000519 191.300491,318.000854 194.000916,318.469788 
	C194.000397,379.625580 194.000198,440.312805 194.000000,501.000000 
	C189.975449,501.000000 185.950912,501.000000 181.463181,501.000000 
z"/>
<path fill="#976E11" opacity="1.000000" stroke="none" 
	d="
M370.467590,501.000000 
	C369.997925,454.377930 369.995880,407.755829 370.347107,360.730957 
	C376.142365,361.687195 381.584351,363.046234 387.019135,364.911163 
	C387.007935,410.611389 387.003967,455.805695 387.000000,501.000000 
	C381.645081,501.000000 376.290131,501.000000 370.467590,501.000000 
z"/>
<path fill="#4B3609" opacity="1.000000" stroke="none" 
	d="
M182.172424,194.349976 
	C181.781616,191.925674 181.051987,189.501709 181.049515,187.077011 
	C180.986694,125.363823 181.000000,63.650562 181.000000,1.468657 
	C185.024551,1.000000 189.049088,1.000000 193.536819,1.468657 
	C194.000015,48.753014 193.939484,95.568939 194.109940,142.384018 
	C194.124252,146.316101 195.690323,150.242554 196.442627,154.547134 
	C191.623993,168.065094 186.898224,181.207535 182.172424,194.349976 
z"/>
<path fill="#7A580D" opacity="1.000000" stroke="none" 
	d="
M313.995880,365.168152 
	C313.997253,410.133026 313.998627,455.097839 314.000000,500.531342 
	C308.645081,501.000000 303.290131,501.000000 297.467590,500.531342 
	C296.998901,455.098145 296.997803,410.133575 297.459320,365.094482 
	C303.279907,365.069336 308.637878,365.118744 313.995880,365.168152 
z"/>
<path fill="#251B04" opacity="1.000000" stroke="none" 
	d="
M102.531731,1.000000 
	C103.000107,37.074162 103.019882,73.148361 102.956711,109.222412 
	C102.952431,111.668373 102.323936,114.113235 101.464539,116.842903 
	C94.960876,117.012894 88.978439,116.898590 82.996017,116.361694 
	C83.330688,77.626060 83.665344,39.313030 84.000000,1.000000 
	C90.021156,1.000000 96.042305,1.000000 102.531731,1.000000 
z"/>
<path fill="#63470B" opacity="1.000000" stroke="none" 
	d="
M256.531738,1.000000 
	C256.998871,39.291237 256.997742,77.582474 256.533203,116.402687 
	C250.045120,116.881836 244.020432,116.832016 237.996292,116.327194 
	C237.997894,77.581459 237.998947,39.290730 238.000000,1.000000 
	C244.021149,1.000000 250.042297,1.000000 256.531738,1.000000 
z"/>
<path fill="#1D1503" opacity="1.000000" stroke="none" 
	d="
M83.531731,1.000000 
	C83.665344,39.313030 83.330688,77.626060 82.533905,116.438873 
	C76.379990,116.887169 70.688202,116.835686 64.996490,116.329063 
	C64.997719,77.582619 64.998856,39.291309 65.000000,1.000000 
	C71.021156,1.000000 77.042305,1.000000 83.531731,1.000000 
z"/>
<path fill="#9E7212" opacity="1.000000" stroke="none" 
	d="
M387.466125,501.000000 
	C387.003967,455.805695 387.007935,410.611389 387.485168,364.877350 
	C392.638092,364.615082 397.317780,364.892517 401.997437,365.169952 
	C401.998291,410.134186 401.999146,455.098450 402.000000,500.531342 
	C397.310760,501.000000 392.621490,501.000000 387.466125,501.000000 
z"/>
<path fill="#6E4F0C" opacity="1.000000" stroke="none" 
	d="
M282.000000,501.000000 
	C277.310760,501.000000 272.621490,501.000000 267.466125,500.531342 
	C266.998962,455.097961 266.997955,410.133209 267.458008,365.093567 
	C272.611725,365.068695 277.304413,365.118744 281.997986,365.626892 
	C281.999268,411.056641 281.999634,456.028320 282.000000,501.000000 
z"/>
<path fill="#73540D" opacity="1.000000" stroke="none" 
	d="
M282.466125,501.000000 
	C281.999634,456.028320 281.999268,411.056641 282.459106,365.552338 
	C287.611786,365.069489 292.304260,365.119232 296.996735,365.169006 
	C296.997803,410.133575 296.998901,455.098145 297.000000,500.531342 
	C292.310760,501.000000 287.621490,501.000000 282.466125,501.000000 
z"/>
<path fill="#503A09" opacity="1.000000" stroke="none" 
	d="
M194.458069,501.000000 
	C194.000198,440.312805 194.000397,379.625580 194.375732,318.469421 
	C195.500580,318.000305 196.250290,318.000153 197.449982,318.000061 
	C200.600189,318.000488 203.300400,318.000854 206.000610,318.001221 
	C205.667084,322.784027 205.049194,327.566498 205.043396,332.349701 
	C204.975662,388.253967 205.000000,444.158325 205.000000,500.531342 
	C201.638718,501.000000 198.277420,501.000000 194.458069,501.000000 
z"/>
<path fill="#161002" opacity="1.000000" stroke="none" 
	d="
M64.532394,1.000000 
	C64.998856,39.291309 64.997719,77.582619 64.534775,116.406807 
	C58.713383,116.902115 53.353794,116.864548 47.994202,116.826981 
	C47.996132,78.530426 47.998062,40.233871 47.999992,1.468657 
	C53.354931,1.000000 58.709858,1.000000 64.532394,1.000000 
z"/>
<path fill="#674B0B" opacity="1.000000" stroke="none" 
	d="
M266.996948,365.168488 
	C266.997955,410.133209 266.998962,455.097961 267.000000,500.531342 
	C262.643097,501.000000 258.286194,501.000000 253.464645,501.000000 
	C252.999634,456.028320 252.999268,411.056641 253.457672,365.551941 
	C258.276611,365.068756 262.636780,365.118622 266.996948,365.168488 
z"/>
<path fill="#503A09" opacity="1.000000" stroke="none" 
	d="
M196.535461,154.171616 
	C195.690323,150.242554 194.124252,146.316101 194.109940,142.384018 
	C193.939484,95.568939 194.000015,48.753014 194.000000,1.468657 
	C198.024551,1.000000 202.049088,1.000000 206.538300,1.405894 
	C207.064117,5.224573 207.163055,8.637187 207.178482,12.050179 
	C207.209854,18.988100 207.188828,25.926239 207.203110,32.864262 
	C207.216461,39.356068 207.215179,45.848160 207.279877,52.339535 
	C207.344330,58.805229 207.586212,65.270599 207.560120,71.735344 
	C207.533325,78.378433 207.202408,85.019913 207.140640,91.663361 
	C207.074600,98.764404 207.034500,105.871910 207.299973,112.964737 
	C207.354950,114.433411 208.803314,115.849922 209.507370,117.658325 
	C205.115326,130.074646 200.825394,142.123138 196.535461,154.171616 
z"/>
<path fill="#5B420A" opacity="1.000000" stroke="none" 
	d="
M237.533142,1.000000 
	C237.998947,39.290730 237.997894,77.581459 237.534943,116.402100 
	C232.047516,116.881973 227.021957,116.831940 221.996765,116.326920 
	C221.998093,77.581291 221.999054,39.290646 222.000000,1.000000 
	C227.022095,1.000000 232.044189,1.000000 237.533142,1.000000 
z"/>
<path fill="#553E0A" opacity="1.000000" stroke="none" 
	d="
M221.533875,1.000000 
	C221.999054,39.290646 221.998093,77.581291 221.544739,116.402298 
	C217.264725,117.051933 213.437103,117.171204 209.609497,117.290474 
	C208.803314,115.849922 207.354950,114.433411 207.299973,112.964737 
	C207.034500,105.871910 207.074600,98.764404 207.140640,91.663361 
	C207.202408,85.019913 207.533325,78.378433 207.560120,71.735344 
	C207.586212,65.270599 207.344330,58.805229 207.279877,52.339535 
	C207.215179,45.848160 207.216461,39.356068 207.203110,32.864262 
	C207.188828,25.926239 207.209854,18.988100 207.178482,12.050179 
	C207.163055,8.637187 207.064117,5.224573 207.001480,1.405894 
	C211.689255,1.000000 216.378510,1.000000 221.533875,1.000000 
z"/>
<path fill="#85600F" opacity="1.000000" stroke="none" 
	d="
M339.311188,322.893494 
	C338.540771,324.801300 337.101227,326.707672 337.097260,328.617096 
	C336.977631,385.765411 337.000000,442.914093 337.000000,500.531342 
	C334.629425,501.000000 332.258881,501.000000 329.444153,501.000000 
	C329.000000,442.608673 328.984619,384.217377 329.038300,325.826080 
	C329.041565,322.337067 328.683258,319.607819 325.311646,317.340637 
	C321.767395,314.957275 322.060211,308.385834 325.825958,305.313171 
	C330.245056,305.814758 330.037811,308.468323 330.032440,311.213501 
	C330.020752,317.223145 330.735565,317.852264 336.911041,318.323090 
	C337.714844,320.079498 338.513031,321.486511 339.311188,322.893494 
z"/>
<path fill="#BB8715" opacity="1.000000" stroke="none" 
	d="
M444.000793,317.528076 
	C441.301880,317.996521 438.602539,317.996704 435.438934,317.574524 
	C434.649780,314.208252 434.067169,311.266327 434.044434,308.320068 
	C433.943329,295.215271 434.002441,282.109253 434.003662,269.003662 
	C437.033417,269.002258 440.063141,269.000824 443.547058,269.000916 
	C444.000946,285.021545 444.000671,301.040680 444.000793,317.528076 
z"/>
<path fill="#FBFBFA" opacity="1.000000" stroke="none" 
	d="
M209.507370,117.658325 
	C213.437103,117.171204 217.264725,117.051933 221.544373,116.857285 
	C227.021957,116.831940 232.047516,116.881973 237.534409,116.857101 
	C244.020432,116.832016 250.045120,116.881836 256.532654,116.857796 
	C257.521088,117.284241 258.046661,117.784561 258.572235,118.284874 
	C257.904297,118.645508 257.236328,119.006149 256.291779,119.498230 
	C251.143036,120.536064 246.270905,121.442467 241.199249,122.664955 
	C239.311050,126.000183 237.144302,128.862320 236.084915,132.088120 
	C235.237091,134.669708 235.650055,137.693283 235.648727,140.520767 
	C235.628876,182.653854 235.633255,224.786926 235.428284,267.468567 
	C235.024002,268.250427 234.928909,268.520905 234.939407,268.828522 
	C232.910553,268.870758 230.881683,268.912994 228.425354,269.039429 
	C224.963196,269.067596 221.928528,269.011597 218.007874,268.957672 
	C214.747452,269.014191 212.373016,269.068665 209.749908,269.034180 
	C209.154312,268.910431 208.807388,268.875671 208.418945,268.384216 
	C208.377411,222.743423 208.377411,177.559341 208.377411,132.375275 
	C207.923615,132.334045 207.469803,132.292801 207.016006,132.251556 
	C202.908997,144.304169 198.802002,156.356766 194.448105,168.703613 
	C189.945190,181.265717 185.689163,193.533585 181.253860,206.104050 
	C173.686035,227.248306 166.297485,248.089935 158.918304,268.951782 
	C158.927689,268.971954 158.954010,268.936035 158.493515,268.936768 
	C154.021149,268.998901 150.009262,269.060364 145.555481,269.039062 
	C141.890717,268.918610 138.667831,268.880920 135.323624,268.489868 
	C127.828491,250.368912 120.454689,232.601303 113.064323,214.468353 
	C107.952232,201.735580 102.856720,189.368118 97.729370,176.649139 
	C91.834602,162.039658 85.971672,147.781708 80.108742,133.523773 
	C79.788261,133.630737 79.467789,133.737717 79.147308,133.844681 
	C79.147308,135.467148 79.147316,137.089630 79.147308,138.712097 
	C79.147301,179.129318 79.152557,219.546524 79.136490,259.963745 
	C79.135300,262.951019 78.980698,265.938202 78.911636,268.955658 
	C78.925873,268.985870 78.960175,268.928558 78.654480,268.932922 
	C77.941147,268.940247 77.533516,268.943237 77.032089,268.489197 
	C76.915344,238.890625 76.889046,209.749039 76.870819,180.607468 
	C76.861443,165.620026 76.950363,150.631866 76.825798,135.645447 
	C76.772041,129.178497 75.212830,123.374741 67.626434,120.940033 
	C60.607838,120.230751 53.955616,119.735748 47.303398,119.240738 
	C47.375408,118.535866 47.447418,117.830994 47.756813,116.976547 
	C53.353794,116.864548 58.713383,116.902115 64.534691,116.861938 
	C70.688202,116.835686 76.379990,116.887169 82.533890,116.861473 
	C88.978439,116.898590 94.960876,117.012894 101.376709,117.282539 
	C108.874954,134.845901 115.939804,152.253906 123.184433,169.951294 
	C129.987732,186.485321 136.611252,202.730011 143.504059,219.234390 
	C148.906967,232.333618 154.040588,245.173141 159.604019,259.087646 
	C162.091553,251.985397 164.206207,245.947815 166.414093,239.534698 
	C171.717255,224.464874 176.927200,209.770538 182.154800,194.713104 
	C186.898224,181.207535 191.623993,168.065094 196.442627,154.547134 
	C200.825394,142.123138 205.115326,130.074646 209.507370,117.658325 
z"/>
<path fill="#171103" opacity="1.000000" stroke="none" 
	d="
M47.223831,119.754608 
	C53.955616,119.735748 60.607838,120.230751 67.611595,121.352524 
	C67.642807,124.768997 67.047485,127.558311 67.043419,130.348480 
	C66.983482,171.497452 66.933006,212.646820 67.090820,253.795288 
	C67.110252,258.861237 68.341354,263.922546 68.581421,268.990295 
	C66.432442,268.999695 64.713013,269.004730 62.529354,269.008087 
	C57.712868,268.999786 53.360615,268.993164 49.008358,268.986572 
	C48.339058,264.455261 47.098701,259.925232 47.088844,255.392471 
	C46.990925,210.351395 47.096325,165.309875 47.223831,119.754608 
z"/>
<path fill="#040300" opacity="1.000000" stroke="none" 
	d="
M48.595772,269.012146 
	C53.360615,268.993164 57.712868,268.999786 62.531639,269.475616 
	C62.663013,285.959595 62.327869,301.974335 61.992722,317.989136 
	C57.639950,317.994812 53.287174,318.000488 48.470570,318.009033 
	C47.337933,316.710236 46.101151,315.414429 46.087761,314.106110 
	C45.946716,300.322510 45.945023,286.536316 46.096153,272.752930 
	C46.109810,271.507050 47.455879,270.275787 48.595772,269.012146 
z"/>
<path fill="#FEFEFD" opacity="1.000000" stroke="none" 
	d="
M255.538574,191.863678 
	C263.020111,191.838058 270.044708,191.887817 277.532257,191.862457 
	C285.686096,191.836731 293.376984,191.886108 301.530945,191.861328 
	C307.612091,191.787170 313.230164,191.787170 318.848236,191.787170 
	C318.880066,192.452377 318.911865,193.117584 318.943695,193.782806 
	C316.209167,194.058624 313.474609,194.334442 309.969452,194.723862 
	C306.502838,195.772598 303.806854,196.707733 300.843353,197.809418 
	C296.878815,201.640457 295.910828,206.232468 295.921814,211.228104 
	C295.958130,227.725769 295.931885,244.223541 295.929779,260.721283 
	C295.929443,263.344360 295.929749,265.967468 295.929749,268.696472 
	C293.600525,268.861328 291.798370,268.988892 289.534485,269.036499 
	C283.380920,269.009460 277.689117,269.062317 271.561737,269.033875 
	C267.322510,269.577209 267.837463,266.933258 267.838287,264.639191 
	C267.844635,246.718658 267.920044,228.797638 267.809937,210.877777 
	C267.743561,200.074371 262.689606,195.088867 252.006348,194.837585 
	C249.616074,194.461136 247.225784,194.084702 244.835510,193.708252 
	C244.862808,193.118530 244.890121,192.528793 244.917435,191.939056 
	C248.305496,191.939056 251.693573,191.939056 255.538574,191.863678 
z"/>
<path fill="#FEFEFD" opacity="1.000000" stroke="none" 
	d="
M267.458008,365.093567 
	C262.636780,365.118622 258.276611,365.068756 253.456848,365.093872 
	C250.311234,365.023163 247.625198,364.877502 244.939163,364.731873 
	C244.892365,364.235504 244.845551,363.739166 244.798752,363.242828 
	C246.955185,362.970123 249.111618,362.697388 252.044189,362.352081 
	C263.179199,361.081116 267.590057,356.481445 267.789978,346.158142 
	C267.969025,336.914520 267.827667,327.664642 267.827667,318.245941 
	C269.447968,318.060028 270.720856,317.914001 272.455872,317.849243 
	C278.609894,317.875946 284.301819,317.821350 290.432068,317.848572 
	C292.459137,318.010345 294.047882,318.090271 295.953094,318.186127 
	C295.953094,327.960388 295.863342,337.378601 295.990082,346.793884 
	C296.055725,351.672211 296.849609,356.388062 301.842468,359.507568 
	C304.709167,360.541107 307.354645,361.278473 310.000122,362.015869 
	C312.734619,362.260773 315.469086,362.505737 318.598328,362.885162 
	C317.593079,363.686249 316.193085,364.352875 314.394470,365.093811 
	C308.637878,365.118744 303.279907,365.069336 297.459320,365.094482 
	C292.304260,365.119232 287.611786,365.069489 282.458191,365.094269 
	C277.304413,365.118744 272.611725,365.068695 267.458008,365.093567 
z"/>
<path fill="#7A590E" opacity="1.000000" stroke="none" 
	d="
M310.000061,361.546143 
	C307.354645,361.278473 304.709167,360.541107 302.181885,359.223755 
	C302.462158,358.355225 302.754639,358.072510 302.767792,357.777374 
	C303.571655,339.714294 303.128265,321.698578 300.624115,303.767212 
	C300.584412,303.482971 300.240845,303.241180 300.147247,302.723236 
	C300.496094,301.965271 300.736725,301.463623 300.982544,300.738953 
	C300.987701,300.515869 300.994232,300.069672 301.231995,299.882812 
	C301.646088,299.131439 301.822418,298.566925 301.998108,297.757141 
	C301.997406,297.511841 301.995239,297.021240 301.860107,296.691986 
	C300.506165,295.258209 299.287384,294.153687 298.037170,293.025330 
	C298.005768,293.001495 297.946014,292.949982 297.971069,292.625702 
	C297.998230,291.867615 298.000366,291.433807 298.413879,290.978699 
	C299.538422,290.215363 300.799774,289.527954 300.880066,288.722809 
	C301.696655,280.530884 302.793701,272.326233 302.905975,264.112732 
	C303.187347,243.529099 303.039581,222.938782 302.916718,202.352020 
	C302.907318,200.778748 301.739960,199.212418 301.110870,197.642853 
	C303.806854,196.707733 306.502838,195.772598 309.599670,194.891800 
	C310.000336,217.414536 310.047485,239.883194 309.930267,262.350983 
	C309.917908,264.719269 308.910767,267.076691 308.415375,269.449646 
	C307.911285,271.864258 307.117004,274.284271 307.064667,276.715149 
	C306.892792,284.700195 306.975464,292.691345 307.007721,300.679993 
	C307.033752,307.127838 306.265717,313.659943 309.621826,319.710358 
	C310.276184,320.890015 309.984070,322.640808 309.986877,324.128448 
	C310.010071,336.444397 310.000000,348.760437 310.000061,361.546143 
z"/>
<path fill="#FAF8F4" opacity="1.000000" stroke="none" 
	d="
M387.534363,191.844666 
	C392.022186,191.830841 396.048065,191.887589 400.537354,191.952484 
	C401.111664,192.555466 401.222626,193.150284 401.094269,194.125214 
	C396.182800,195.807892 391.510620,197.110474 386.501892,198.546875 
	C380.427032,203.781830 374.688782,208.882950 368.644928,214.121918 
	C364.177948,218.998383 360.016541,223.736969 355.556427,228.663147 
	C351.439148,233.207779 347.620605,237.564819 343.505798,242.066528 
	C338.420898,247.429016 333.632263,252.646835 328.739746,257.977875 
	C331.144440,261.585663 333.400696,264.970795 335.905701,268.729095 
	C333.535492,268.890808 331.767090,269.011444 329.566284,269.054749 
	C327.088654,269.029022 325.043488,269.080688 322.998291,269.132324 
	C320.984039,269.050262 318.969788,268.968201 316.525757,268.843048 
	C319.321869,265.077423 322.547760,261.354919 325.887024,257.316986 
	C332.112213,250.286835 338.224030,243.572113 344.506378,236.548157 
	C348.084900,232.504974 351.492950,228.771011 355.328735,224.562469 
	C358.713287,220.531113 361.906067,217.140686 364.562408,213.372116 
	C367.384003,209.369064 371.124786,204.898483 368.327759,199.842346 
	C365.624817,194.956238 359.941681,195.377945 354.995697,195.149048 
	C351.956696,194.776688 348.917664,194.404327 345.878662,194.031952 
	C345.956726,193.338867 346.034760,192.645767 346.112823,191.952667 
	C349.437408,191.952667 352.761993,191.952667 356.541718,191.885284 
	C361.688965,191.862549 366.381042,191.907196 371.534882,191.884827 
	C377.021881,191.850281 382.047150,191.882736 387.534363,191.844666 
z"/>
<path fill="#B58314" opacity="1.000000" stroke="none" 
	d="
M433.574707,269.002289 
	C434.002441,282.109253 433.943329,295.215271 434.044434,308.320068 
	C434.067169,311.266327 434.649780,314.208252 434.989166,317.574158 
	C434.251862,317.997711 433.500031,317.999298 432.372284,318.002258 
	C428.967651,318.001465 425.938965,317.999268 422.455566,317.528015 
	C422.000977,301.040558 422.001099,285.022095 422.001221,269.003662 
	C423.714600,269.001862 425.427979,269.000092 427.569458,268.997925 
	C429.713623,268.998657 431.429657,268.999786 433.574707,269.002289 
z"/>
<path fill="#684C0D" opacity="1.000000" stroke="none" 
	d="
M271.993713,317.767944 
	C270.720856,317.914001 269.447968,318.060028 267.827667,318.245941 
	C267.827667,327.664642 267.969025,336.914520 267.789978,346.158142 
	C267.590057,356.481445 263.179199,361.081116 252.411728,362.191498 
	C252.002274,349.797607 252.059219,337.491241 251.959167,325.186127 
	C251.934784,322.185547 252.320023,319.875275 255.175766,317.982849 
	C256.656952,317.001312 257.842499,314.453217 257.876678,312.589203 
	C258.108765,299.928375 258.065430,287.260468 257.916718,274.597168 
	C257.897339,272.947540 257.246979,270.592438 256.062103,269.799408 
	C252.072632,267.129364 251.937714,263.432922 251.956543,259.289062 
	C252.052673,238.125488 252.002213,216.961227 252.004669,195.317398 
	C262.689606,195.088867 267.743561,200.074371 267.809937,210.877777 
	C267.920044,228.797638 267.844635,246.718658 267.838287,264.639191 
	C267.837463,266.933258 267.322510,269.577209 271.562622,269.495056 
	C271.999329,279.342133 272.084534,288.648132 271.926270,297.950043 
	C271.895477,299.758331 270.916504,301.550507 269.959930,303.344086 
	C266.421631,303.799286 265.474121,302.354919 265.724304,299.378815 
	C265.952057,296.669159 265.772522,293.925232 265.772522,291.196411 
	C265.247467,291.218079 264.722382,291.239777 264.197327,291.261444 
	C264.197327,295.768311 264.197327,300.275146 264.197327,304.903320 
	C266.540222,304.903320 268.656036,304.903320 271.088135,305.185364 
	C271.600800,309.567627 271.797241,313.667786 271.993713,317.767944 
z"/>
<path fill="#684C0D" opacity="1.000000" stroke="none" 
	d="
M247.856323,329.124237 
	C247.965530,328.822083 248.219254,328.662323 248.472992,328.502563 
	C248.315613,328.757263 248.158218,329.011963 247.856323,329.124237 
z"/>
<path fill="#AF8016" opacity="1.000000" stroke="none" 
	d="
M421.551086,269.002197 
	C422.001099,285.022095 422.000977,301.040558 422.001648,317.527130 
	C420.286713,317.996796 418.571014,317.998322 416.426422,318.001160 
	C414.609711,318.000732 413.221893,317.999054 411.358765,317.588135 
	C410.258118,313.032898 409.632751,308.886902 409.007355,304.740906 
	C410.255066,303.752930 410.956299,302.440063 410.969757,301.120239 
	C410.984314,299.693420 410.069763,298.262970 410.055328,296.829132 
	C409.961914,287.555542 410.003754,278.280609 410.001221,269.006104 
	C410.750641,269.004059 411.500031,269.002014 412.624115,268.999390 
	C415.699524,268.999451 418.400238,269.000122 421.551086,269.002197 
z"/>
<path fill="#2C2006" opacity="1.000000" stroke="none" 
	d="
M135.444962,268.843262 
	C138.667831,268.880920 141.890717,268.918610 145.556290,269.499908 
	C145.998993,276.517761 146.036194,282.992401 145.966263,289.465881 
	C145.952957,290.696533 145.854660,292.752258 145.217453,293.012665 
	C141.752151,294.428864 143.186768,297.634644 143.761414,299.035156 
	C146.339523,305.318298 146.490051,311.553375 144.996338,317.996338 
	C140.642426,317.999054 136.288498,318.001770 131.470749,318.005310 
	C130.838287,318.003967 130.669647,318.001831 130.252167,317.569580 
	C130.000992,301.094208 129.998657,285.048950 130.450562,269.002014 
	C132.418182,268.947998 133.931564,268.895630 135.444962,268.843262 
z"/>
<path fill="#332506" opacity="1.000000" stroke="none" 
	d="
M145.425354,317.997742 
	C146.490051,311.553375 146.339523,305.318298 143.761414,299.035156 
	C143.186768,297.634644 141.752151,294.428864 145.217453,293.012665 
	C145.854660,292.752258 145.952957,290.696533 145.966263,289.465881 
	C146.036194,282.992401 145.998993,276.517761 145.998199,269.582672 
	C150.009262,269.060364 154.021149,268.998901 158.518661,269.363098 
	C159.335953,271.906006 159.983627,274.028595 159.948090,276.139709 
	C159.713165,290.093445 159.331436,304.044769 158.997559,317.996826 
	C156.628677,317.998688 154.259796,318.000549 151.447296,318.003052 
	C149.287231,318.002167 147.570801,318.000641 145.425354,317.997742 
z"/>
<path fill="#413314" opacity="1.000000" stroke="none" 
	d="
M132.271530,336.730469 
	C131.989182,334.615234 131.979736,332.226776 131.980835,329.387054 
	C133.312866,329.067841 134.634369,329.199890 135.976501,329.666718 
	C135.997116,330.001495 135.903046,330.090118 135.903046,330.090118 
	C130.818634,330.121094 134.191040,334.612915 132.271530,336.730469 
z"/>
<path fill="#413314" opacity="1.000000" stroke="none" 
	d="
M136.043427,329.956421 
	C136.732697,331.139587 137.375641,332.367798 138.018570,333.596039 
	C137.480240,333.787018 136.941910,333.977997 136.403564,334.168976 
	C136.251755,333.049194 136.099945,331.929382 135.925598,330.449860 
	C135.903046,330.090118 135.997116,330.001495 136.043427,329.956421 
z"/>
<path fill="#5B420B" opacity="1.000000" stroke="none" 
	d="
M234.967102,269.261536 
	C234.928909,268.520905 235.024002,268.250427 235.424118,267.926392 
	C240.702438,269.344513 242.674637,272.713928 242.044250,277.953979 
	C241.594849,281.689545 241.556747,285.474548 240.750473,289.610718 
	C238.776199,289.979858 237.386566,289.975708 235.996948,289.971558 
	C235.662903,283.212555 235.328842,276.453583 234.967102,269.261536 
z"/>
<path fill="#634B15" opacity="1.000000" stroke="none" 
	d="
M235.998215,290.346741 
	C237.386566,289.975708 238.776199,289.979858 240.582535,289.993286 
	C242.481171,292.925781 243.963089,295.848969 245.445023,298.772156 
	C245.073074,298.921082 244.701126,299.070007 244.329178,299.218933 
	C242.789642,297.191681 241.250107,295.164398 239.345276,293.112549 
	C237.986481,292.299286 236.992981,291.510590 235.998215,290.346741 
z"/>
<path fill="#634B15" opacity="1.000000" stroke="none" 
	d="
M239.216568,305.844421 
	C237.334930,304.930756 235.678589,303.832733 234.011124,302.367371 
	C234.000000,302.000000 234.000610,301.998779 234.000610,301.998779 
	C235.413513,302.308258 236.826416,302.617737 238.603333,302.924042 
	C239.125519,303.833954 239.283691,304.747040 239.216568,305.844421 
z"/>
<path fill="#634B15" opacity="1.000000" stroke="none" 
	d="
M234.089447,333.982056 
	C234.511444,333.334290 234.934967,332.999298 235.358490,332.664307 
	C235.362534,333.538696 235.366562,334.413086 235.370605,335.287476 
	C234.944061,334.956604 234.517517,334.625702 234.089447,333.982056 
z"/>
<path fill="#634B15" opacity="1.000000" stroke="none" 
	d="
M229.396332,329.980225 
	C229.186478,329.405304 229.345963,328.852661 229.746246,328.127045 
	C231.106033,328.326752 232.225052,328.699432 234.738815,329.536591 
	C232.275589,329.767334 231.020630,329.884918 229.396332,329.980225 
z"/>
<path fill="#634B15" opacity="1.000000" stroke="none" 
	d="
M228.215424,331.914429 
	C228.107956,331.424469 228.238434,330.744659 228.663483,330.046112 
	C228.789841,330.593109 228.621613,331.158844 228.215424,331.914429 
z"/>
<path fill="#634B15" opacity="1.000000" stroke="none" 
	d="
M242.747864,302.345825 
	C242.645248,302.028687 242.753586,301.676392 242.861938,301.324097 
	C242.894241,301.652954 242.926544,301.981812 242.747864,302.345825 
z"/>
<path fill="#9E7212" opacity="1.000000" stroke="none" 
	d="
M386.838440,198.413040 
	C391.510620,197.110474 396.182800,195.807892 401.219666,194.320435 
	C401.722931,205.454880 401.909760,216.773895 401.985657,228.093658 
	C402.053802,238.257980 402.149445,248.426590 401.912781,258.585846 
	C401.837646,261.811737 400.733826,265.013702 399.620911,268.612732 
	C397.427765,268.999664 395.714508,269.000458 393.561218,269.000732 
	C384.767853,269.006073 383.906952,269.703461 384.034271,277.924347 
	C384.241180,291.283875 384.667511,304.639984 385.000610,317.998779 
	C385.000000,318.000000 384.998779,318.001221 384.554779,318.001129 
	C381.740936,318.000275 379.371063,317.999512 376.950867,317.616211 
	C376.266846,313.203491 375.633240,309.173309 375.332581,304.897095 
	C375.888763,302.884796 376.111938,301.118500 376.336243,299.343384 
	C378.421326,298.978516 380.349243,298.641174 382.277130,298.303833 
	C382.248749,297.971222 382.220398,297.638641 382.192017,297.306030 
	C380.193878,297.073151 378.195709,296.840302 376.829834,296.681122 
	C376.117920,294.406281 375.557770,292.616364 374.998413,290.369019 
	C375.333160,282.941437 375.667206,275.971344 376.441895,269.000977 
	C378.375671,268.996063 379.873322,269.064972 381.360931,268.972198 
	C385.001221,268.745209 387.086548,267.270020 387.053650,263.110474 
	C386.883057,241.545441 386.892059,219.978989 386.838440,198.413040 
z"/>
<path fill="#A67812" opacity="1.000000" stroke="none" 
	d="
M394.001221,269.001221 
	C395.714508,269.000458 397.427765,268.999664 399.569458,268.998383 
	C400.443604,268.999054 400.889343,269.000275 401.668457,269.470734 
	C402.155243,279.280853 402.282349,288.622253 402.470917,297.962402 
	C402.605774,304.641235 402.823120,311.318420 403.003662,317.996338 
	C402.252136,317.997803 401.500610,317.999298 399.945221,318.001221 
	C397.427979,318.000702 395.714600,317.999725 393.987640,317.576477 
	C393.983124,301.103210 393.992188,285.052216 394.001221,269.001221 
z"/>
<path fill="#AB7D17" opacity="1.000000" stroke="none" 
	d="
M403.447479,317.996948 
	C402.823120,311.318420 402.605774,304.641235 402.470917,297.962402 
	C402.282349,288.622253 402.155243,279.280853 402.002747,269.471802 
	C404.373383,269.003021 406.743073,269.002380 409.557007,269.003937 
	C410.003754,278.280609 409.961914,287.555542 410.055328,296.829132 
	C410.069763,298.262970 410.984314,299.693420 410.969757,301.120239 
	C410.956299,302.440063 410.255066,303.752930 409.007355,304.740906 
	C409.632751,308.886902 410.258118,313.032898 410.942383,317.587006 
	C408.631256,317.995911 406.261261,317.996735 403.447479,317.996948 
z"/>
<path fill="#906913" opacity="1.000000" stroke="none" 
	d="
M354.997131,195.608063 
	C359.941681,195.377945 365.624817,194.956238 368.327759,199.842346 
	C371.124786,204.898483 367.384003,209.369064 364.562408,213.372116 
	C361.906067,217.140686 358.713287,220.531113 355.455139,224.264023 
	C355.102051,214.982468 355.050323,205.524796 354.997131,195.608063 
z"/>
<path fill="#1D1504" opacity="1.000000" stroke="none" 
	d="
M97.472321,318.005981 
	C96.558868,318.004272 96.111649,318.001251 95.391541,317.582886 
	C95.418816,308.623383 95.718971,300.079193 96.124657,291.407654 
	C96.351357,291.283936 96.472519,291.287598 96.593689,291.291260 
	C96.403679,291.026733 96.213669,290.762177 96.017670,289.997955 
	C96.006973,282.666321 96.002266,275.834381 96.248276,268.997131 
	C96.666145,268.989044 96.833305,268.986237 97.467316,268.987793 
	C102.957649,268.992554 107.981140,268.992981 113.337067,268.994995 
	C114.112801,268.998169 114.556099,268.999695 114.999695,269.469727 
	C115.010529,276.986969 115.021065,284.035736 115.027634,291.542664 
	C115.034340,296.288177 115.045006,300.575439 115.039948,305.334259 
	C115.015335,309.869293 115.006447,313.932831 114.997559,317.996338 
	C114.554115,317.997742 114.110664,317.999146 113.334679,318.002106 
	C107.980942,318.003998 102.959755,318.004303 97.472321,318.005981 
z"/>
<path fill="#251B05" opacity="1.000000" stroke="none" 
	d="
M115.031601,291.084473 
	C115.021065,284.035736 115.010529,276.986969 115.465866,269.467773 
	C120.619942,268.999390 125.308144,269.001526 129.996338,269.003662 
	C129.998657,285.048950 130.000992,301.094208 129.999207,317.567291 
	C125.306854,317.997040 120.618591,317.998993 115.463943,317.998627 
	C115.006447,313.932831 115.015335,309.869293 115.453056,305.357605 
	C116.454163,303.058319 117.026436,301.207275 117.631042,299.251648 
	C119.349197,298.950500 121.242149,298.618744 123.135094,298.286987 
	C123.101135,297.950409 123.067169,297.613831 123.033203,297.277252 
	C121.067421,297.055573 119.101646,296.833893 118.372086,296.751617 
	C116.932442,294.309265 115.982025,292.696869 115.031601,291.084473 
z"/>
<path fill="#140E02" opacity="1.000000" stroke="none" 
	d="
M96.019127,291.535004 
	C95.718971,300.079193 95.418816,308.623383 95.056183,317.580750 
	C90.972496,317.997375 86.951271,318.000854 82.467438,318.006409 
	C81.251862,318.004425 80.498901,318.000275 79.371964,317.525635 
	C78.985382,301.012970 78.972778,284.970764 78.960175,268.928558 
	C78.960175,268.928558 78.925873,268.985870 79.385086,268.982300 
	C85.228714,268.986664 90.613136,268.994537 95.997559,269.002441 
	C96.002266,275.834381 96.006973,282.666321 95.673409,290.197479 
	C93.862625,290.967651 92.390121,291.038574 91.679085,291.072845 
	C91.924553,295.651947 92.172295,300.273315 92.420029,304.894684 
	C92.968048,304.882233 93.516068,304.869812 94.064087,304.857391 
	C94.064087,301.561890 93.894203,298.252930 94.153755,294.977997 
	C94.248024,293.788513 95.367447,292.680298 96.019127,291.535004 
z"/>
<path fill="#0C0901" opacity="1.000000" stroke="none" 
	d="
M78.654480,268.932922 
	C78.972778,284.970764 78.985382,301.012970 78.995575,317.522705 
	C74.640282,317.995483 70.287407,318.000702 65.470680,318.008362 
	C64.253342,318.006226 63.499855,318.001648 62.369545,317.993103 
	C62.327869,301.974335 62.663013,285.959595 62.995872,269.477295 
	C64.713013,269.004730 66.432442,268.999695 69.030243,268.992889 
	C72.314369,268.976166 74.720123,268.961182 77.125885,268.946228 
	C77.533516,268.943237 77.941147,268.940247 78.654480,268.932922 
z"/>
<path fill="#392906" opacity="1.000000" stroke="none" 
	d="
M159.447815,317.998108 
	C159.331436,304.044769 159.713165,290.093445 159.948090,276.139709 
	C159.983627,274.028595 159.335953,271.906006 158.979156,269.362366 
	C158.954010,268.936035 158.927689,268.971954 159.386902,268.975464 
	C163.897415,268.985962 167.948700,268.992981 172.013123,269.422424 
	C172.350815,274.571503 172.604279,279.304626 173.030014,284.022186 
	C173.242996,286.382355 173.770401,288.714081 174.107849,291.516998 
	C174.091415,296.297333 174.122726,300.619385 173.852173,305.220520 
	C173.032898,309.665619 172.515533,313.831604 171.998169,317.997559 
	C170.932297,317.998535 169.866409,317.999512 168.400879,318.000854 
	C165.300171,318.000610 162.599121,317.999969 159.447815,317.998108 
z"/>
<path fill="#31260D" opacity="1.000000" stroke="none" 
	d="
M102.998184,330.870056 
	C102.998184,330.870056 102.986786,330.531464 103.318863,330.332703 
	C104.769897,330.427460 105.888847,330.720947 107.007797,331.014435 
	C107.001190,331.484436 106.994576,331.954407 106.643280,332.729340 
	C106.083633,332.999542 105.868668,332.964813 105.653702,332.930115 
	C104.991905,332.953644 104.330109,332.977173 103.334152,333.000366 
	C103.000000,333.000000 102.997429,332.998444 102.997429,332.998444 
	C102.997429,332.998444 102.999924,332.541748 103.012421,332.009186 
	C103.016006,331.274445 103.007095,331.072235 102.998184,330.870056 
z"/>
<path fill="#433923" opacity="1.000000" stroke="none" 
	d="
M106.979202,330.699341 
	C105.888847,330.720947 104.769897,330.427460 103.301468,330.164215 
	C104.168526,328.060425 105.395081,328.118652 106.979202,330.699341 
z"/>
<path fill="#31260D" opacity="1.000000" stroke="none" 
	d="
M103.001450,333.001221 
	C102.967171,333.632324 102.931442,334.262207 102.895714,334.892090 
	C102.739014,334.888947 102.582314,334.885834 102.425613,334.882690 
	C102.466164,334.367981 102.506721,333.853271 102.772354,333.168518 
	C102.997429,332.998444 103.000000,333.000000 103.001450,333.001221 
z"/>
<path fill="#A39E94" opacity="1.000000" stroke="none" 
	d="
M105.600952,333.316589 
	C105.868668,332.964813 106.083633,332.999542 106.621826,333.081207 
	C106.868919,333.993347 106.792778,334.858582 106.716637,335.723785 
	C106.480362,335.733643 106.244087,335.743500 106.007812,335.753326 
	C105.854607,335.069916 105.701408,334.386475 105.600952,333.316589 
z"/>
<path fill="#433923" opacity="1.000000" stroke="none" 
	d="
M102.822281,330.989136 
	C103.007095,331.072235 103.016006,331.274445 103.013809,331.780853 
	C102.883919,331.759460 102.765144,331.433807 102.822281,330.989136 
z"/>
<path fill="#634B15" opacity="1.000000" stroke="none" 
	d="
M233.999695,302.000427 
	C233.498672,301.702515 232.997955,301.404205 232.497238,301.105896 
	C232.674408,300.900757 232.851578,300.695587 233.028748,300.490448 
	C233.329605,300.807129 233.630463,301.123840 233.965973,301.719666 
	C234.000610,301.998779 234.000000,302.000000 233.999695,302.000427 
z"/>
<path fill="#634B15" opacity="1.000000" stroke="none" 
	d="
M233.140869,295.660156 
	C233.028625,295.358673 233.115524,295.029266 233.202393,294.699860 
	C233.248276,295.010651 233.294144,295.321442 233.140869,295.660156 
z"/>
<path fill="#88630F" opacity="1.000000" stroke="none" 
	d="
M329.998688,269.132111 
	C331.767090,269.011444 333.535492,268.890808 335.905701,268.729095 
	C333.400696,264.970795 331.144440,261.585663 328.739746,257.977875 
	C333.632263,252.646835 338.420898,247.429016 343.909241,242.173676 
	C345.072327,243.437653 345.897522,244.728699 345.935516,246.042496 
	C346.088837,251.345200 345.879852,256.658569 346.040588,261.960815 
	C346.152405,265.649261 344.463867,267.664154 341.239258,269.214050 
	C339.803833,269.903961 338.161774,271.894897 338.075989,273.379852 
	C337.532074,282.795959 337.246613,292.234711 337.186249,301.667999 
	C337.151886,307.031281 337.706390,312.398346 337.729126,317.847260 
	C337.276825,317.945099 337.091095,317.959381 336.905396,317.973663 
	C330.735565,317.852264 330.020752,317.223145 330.032440,311.213501 
	C330.037811,308.468323 330.245056,305.814758 326.204773,305.242065 
	C325.927307,304.971039 325.959869,304.510529 326.372375,304.262421 
	C328.031433,303.855927 329.277985,303.697571 330.041504,303.600555 
	C330.041504,299.745789 330.041504,296.379333 330.037903,292.638611 
	C330.020477,291.516724 330.006683,290.769196 329.994995,289.551758 
	C329.997589,282.431976 329.998138,275.782043 329.998688,269.132111 
z"/>
<path fill="#85600F" opacity="1.000000" stroke="none" 
	d="
M329.566284,269.054749 
	C329.998138,275.782043 329.997589,282.431976 329.584900,289.526917 
	C327.811127,289.992828 326.449524,290.013763 325.087921,290.034698 
	C324.392120,288.610992 323.164093,287.212128 323.096222,285.759125 
	C322.852203,280.533356 322.999817,275.289307 322.998871,269.592255 
	C325.043488,269.080688 327.088654,269.029022 329.566284,269.054749 
z"/>
<path fill="#85600F" opacity="1.000000" stroke="none" 
	d="
M330.041504,293.012909 
	C330.041504,296.379333 330.041504,299.745789 330.041504,303.600555 
	C329.277985,303.697571 328.031433,303.855927 326.381592,304.031799 
	C324.460999,301.886536 322.943634,299.723816 321.323608,297.025574 
	C321.477051,295.990570 321.733154,295.491119 321.989258,294.991699 
	C322.830322,294.075470 323.671387,293.159241 325.121307,292.276581 
	C327.167267,292.544403 328.604401,292.778656 330.041504,293.012909 
z"/>
<path fill="#997A36" opacity="1.000000" stroke="none" 
	d="
M330.037903,292.638611 
	C328.604401,292.778656 327.167267,292.544403 325.407166,292.144318 
	C325.074066,291.546234 325.063934,291.113983 325.070862,290.358215 
	C326.449524,290.013763 327.811127,289.992828 329.582825,289.996765 
	C330.006683,290.769196 330.020477,291.516724 330.037903,292.638611 
z"/>
<path fill="#88630F" opacity="1.000000" stroke="none" 
	d="
M321.704315,295.028717 
	C321.733154,295.491119 321.477051,295.990570 321.107178,296.747253 
	C321.135376,296.358215 321.277374,295.712006 321.704315,295.028717 
z"/>
<path fill="#FEFDFC" opacity="1.000000" stroke="none" 
	d="
M336.911041,318.323090 
	C337.091095,317.959381 337.276825,317.945099 338.173828,317.925598 
	C341.589355,317.867767 344.293579,317.815125 347.450043,317.841492 
	C351.264923,317.870117 354.627533,317.819794 358.322876,317.847168 
	C359.105438,317.874420 359.555328,317.823944 360.452850,317.847412 
	C363.923676,317.981018 366.946838,318.040680 370.088379,318.416901 
	C374.743591,325.184723 379.280396,331.635956 383.910645,338.420227 
	C388.977539,344.892181 393.951019,351.031067 398.924530,357.169952 
	C402.568451,359.502838 406.212372,361.835724 411.197845,365.027496 
	C407.528107,365.027496 405.196014,365.027496 402.430664,365.098724 
	C397.317780,364.892517 392.638092,364.615082 387.492401,364.371429 
	C381.584351,363.046234 376.142365,361.687195 370.345490,360.276367 
	C361.849060,355.779236 356.847839,348.354279 351.468262,340.822449 
	C347.402710,334.842743 343.629425,329.051544 339.583679,323.076935 
	C338.513031,321.486511 337.714844,320.079498 336.911041,318.323090 
z"/>
<path fill="#9C7212" opacity="1.000000" stroke="none" 
	d="
M399.095154,356.775177 
	C393.951019,351.031067 388.977539,344.892181 384.223328,338.128510 
	C384.628021,331.002899 384.813416,324.502045 384.998779,318.001221 
	C384.998779,318.001221 385.000000,318.000000 385.450470,317.999268 
	C388.601044,317.998627 391.301117,317.998688 394.001221,317.998779 
	C395.714600,317.999725 397.427979,318.000702 399.569458,318.002045 
	C399.998352,328.835571 400.035248,339.668884 399.966888,350.501587 
	C399.954529,352.462585 399.510498,354.420868 399.095154,356.775177 
z"/>
<path fill="#4C3709" opacity="1.000000" stroke="none" 
	d="
M181.433136,205.801437 
	C185.689163,193.533585 189.945190,181.265717 194.635773,169.126373 
	C195.380188,171.196182 195.942001,173.135406 195.958054,175.079132 
	C196.045975,185.721680 195.999969,196.365326 196.000015,207.008606 
	C196.000092,224.802841 195.980759,242.597092 196.010162,260.391266 
	C196.021454,267.226501 197.853287,269.042816 204.474228,268.992188 
	C205.803284,268.982056 207.131729,268.893372 208.460464,268.840912 
	C208.807388,268.875671 209.154312,268.910431 209.750305,269.494751 
	C209.999588,271.859924 209.906357,273.681305 210.018051,275.490021 
	C210.317474,280.339569 210.704666,285.183685 210.877365,290.385681 
	C210.436005,293.159149 210.174271,295.576874 209.704208,297.995544 
	C209.495865,297.996490 209.077667,297.995239 208.901672,297.783020 
	C208.313599,297.615784 207.901505,297.660797 207.489426,297.705811 
	C207.991287,298.131714 208.493149,298.557587 208.989578,299.196472 
	C208.984146,299.409454 208.956436,299.834656 208.939301,300.208984 
	C209.689499,302.349243 210.456833,304.115173 210.913788,306.161224 
	C210.068726,310.293854 209.534058,314.146301 208.999390,317.998779 
	C208.249680,317.999359 207.499985,317.999908 206.375443,318.000854 
	C203.300400,318.000854 200.600189,318.000488 197.509781,317.585938 
	C197.413223,315.059204 197.940323,312.948883 197.960464,310.833710 
	C198.051926,301.222229 197.994690,291.609375 198.001968,281.997040 
	C198.013672,266.513641 198.822464,269.239471 185.000000,269.000000 
	C185.000000,269.000000 185.000885,268.998779 184.949829,268.613098 
	C184.265869,265.020264 183.124664,261.819153 183.086121,258.604828 
	C182.896622,242.804306 183.050140,226.999893 182.931015,211.197998 
	C182.917435,209.395493 181.955399,207.600113 181.433136,205.801437 
M205.519119,292.864014 
	C204.747314,291.987885 203.975510,291.111725 202.552246,289.496063 
	C202.552246,295.118591 202.552246,299.567383 202.552246,304.016205 
	C202.773651,304.018219 202.995041,304.020233 203.216446,304.022278 
	C204.128067,300.493134 205.039703,296.964020 205.519119,292.864014 
z"/>
<path fill="#503A09" opacity="1.000000" stroke="none" 
	d="
M211.057007,290.029938 
	C210.704666,285.183685 210.317474,280.339569 210.018051,275.490021 
	C209.906357,273.681305 209.999588,271.859924 209.998993,269.583740 
	C212.373016,269.068665 214.747452,269.014191 217.560150,269.041687 
	C217.998962,282.699463 218.002167,296.275269 217.998947,309.851074 
	C217.997101,317.617462 217.644485,317.965881 209.431396,317.999329 
	C209.534058,314.146301 210.068726,310.293854 211.279999,306.066406 
	C213.289856,300.377106 214.700836,295.058350 211.057007,290.029938 
z"/>
<path fill="#59400A" opacity="1.000000" stroke="none" 
	d="
M212.045517,331.973083 
	C212.173935,332.100128 212.266968,332.256927 212.360016,332.413727 
	C212.270798,332.377991 212.181595,332.342255 212.020996,332.189636 
	C211.949585,332.072754 212.010132,332.002869 212.045517,331.973083 
z"/>
<path fill="#3F2E07" opacity="1.000000" stroke="none" 
	d="
M174.155594,291.058685 
	C173.770401,288.714081 173.242996,286.382355 173.030014,284.022186 
	C172.604279,279.304626 172.350815,274.571503 172.476303,269.421570 
	C176.951218,268.998474 180.976044,268.998627 185.000885,268.998779 
	C185.000885,268.998779 185.000000,269.000000 185.059662,269.414124 
	C185.412872,271.783508 185.943619,273.736725 185.960129,275.694305 
	C186.045700,285.845734 186.091309,295.999512 185.954163,306.149841 
	C185.900757,310.103058 185.332520,314.049347 184.998779,317.998779 
	C184.249329,317.999298 183.499878,317.999817 182.375717,318.000763 
	C178.969620,318.000763 175.938232,318.000336 172.452515,317.998718 
	C172.515533,313.831604 173.032898,309.665619 174.262177,305.213104 
	C175.519363,303.026337 176.064651,301.126099 176.600739,299.257935 
	C178.349350,299.257935 180.083862,299.257935 181.785950,299.257935 
	C181.954926,301.194519 182.095016,302.800049 182.235107,304.405548 
	C182.411560,304.394379 182.588013,304.383209 182.764465,304.372070 
	C182.764465,300.162018 182.764465,295.951935 182.764465,291.741882 
	C182.600845,291.734436 182.437225,291.726959 182.273605,291.719482 
	C182.050293,293.432251 181.826981,295.145020 181.617279,296.753357 
	C179.639420,296.753357 178.017792,296.753357 177.103043,296.753357 
	C175.965271,294.555115 175.060440,292.806915 174.155594,291.058685 
z"/>
<path fill="#453208" opacity="1.000000" stroke="none" 
	d="
M185.448914,317.999451 
	C185.332520,314.049347 185.900757,310.103058 185.954163,306.149841 
	C186.091309,295.999512 186.045700,285.845734 185.960129,275.694305 
	C185.943619,273.736725 185.412872,271.783508 185.059662,269.414124 
	C198.822464,269.239471 198.013672,266.513641 198.001968,281.997040 
	C197.994690,291.609375 198.051926,301.222229 197.960464,310.833710 
	C197.940323,312.948883 197.413223,315.059204 197.059784,317.585876 
	C196.250290,318.000153 195.500580,318.000305 194.376038,318.000854 
	C191.300491,318.000854 188.599762,318.000519 185.448914,317.999451 
z"/>
<path fill="#271D09" opacity="1.000000" stroke="none" 
	d="
M96.248276,268.997131 
	C90.613136,268.994537 85.228714,268.986664 79.370850,268.952087 
	C78.980698,265.938202 79.135300,262.951019 79.136490,259.963745 
	C79.152557,219.546524 79.147301,179.129318 79.147308,138.712097 
	C79.147316,137.089630 79.147308,135.467148 79.147308,133.844681 
	C79.467789,133.737717 79.788261,133.630737 80.108742,133.523773 
	C85.971672,147.781708 91.834602,162.039658 97.360550,176.777695 
	C96.682350,178.799164 96.047142,180.339890 96.043648,181.882050 
	C95.982956,208.634354 95.975616,235.386917 96.043266,262.139191 
	C96.049049,264.421417 96.666939,266.702057 97.000465,268.983429 
	C96.833305,268.986237 96.666145,268.989044 96.248276,268.997131 
z"/>
<path fill="#513B0A" opacity="1.000000" stroke="none" 
	d="
M208.418945,268.384216 
	C207.131729,268.893372 205.803284,268.982056 204.474228,268.992188 
	C197.853287,269.042816 196.021454,267.226501 196.010162,260.391266 
	C195.980759,242.597092 196.000092,224.802841 196.000015,207.008606 
	C195.999969,196.365326 196.045975,185.721680 195.958054,175.079132 
	C195.942001,173.135406 195.380188,171.196182 194.882660,168.832123 
	C198.802002,156.356766 202.908997,144.304169 207.016006,132.251556 
	C207.469803,132.292801 207.923615,132.334045 208.377411,132.375275 
	C208.377411,177.559341 208.377411,222.743423 208.418945,268.384216 
z"/>
<path fill="#201908" opacity="1.000000" stroke="none" 
	d="
M77.032089,268.489197 
	C74.720123,268.961182 72.314369,268.976166 69.459785,268.988586 
	C68.341354,263.922546 67.110252,258.861237 67.090820,253.795288 
	C66.933006,212.646820 66.983482,171.497452 67.043419,130.348480 
	C67.047485,127.558311 67.642807,124.768997 67.977974,121.566795 
	C75.212830,123.374741 76.772041,129.178497 76.825798,135.645447 
	C76.950363,150.631866 76.861443,165.620026 76.870819,180.607468 
	C76.889046,209.749039 76.915344,238.890625 77.032089,268.489197 
z"/>
<path fill="#291E05" opacity="1.000000" stroke="none" 
	d="
M97.467316,268.987793 
	C96.666939,266.702057 96.049049,264.421417 96.043266,262.139191 
	C95.975616,235.386917 95.982956,208.634354 96.043648,181.882050 
	C96.047142,180.339890 96.682350,178.799164 97.392387,177.129227 
	C102.856720,189.368118 107.952232,201.735580 112.888733,214.860840 
	C112.821350,233.410233 112.912987,251.201797 113.004623,268.993378 
	C107.981140,268.992981 102.957649,268.992554 97.467316,268.987793 
z"/>
<path fill="#47340A" opacity="1.000000" stroke="none" 
	d="
M184.949829,268.613098 
	C180.976044,268.998627 176.951218,268.998474 172.463196,268.999146 
	C167.948700,268.992981 163.897415,268.985962 159.377518,268.955261 
	C166.297485,248.089935 173.686035,227.248306 181.253860,206.104050 
	C181.955399,207.600113 182.917435,209.395493 182.931015,211.197998 
	C183.050140,226.999893 182.896622,242.804306 183.086121,258.604828 
	C183.124664,261.819153 184.265869,265.020264 184.949829,268.613098 
z"/>
<path fill="#312408" opacity="1.000000" stroke="none" 
	d="
M113.337067,268.994995 
	C112.912987,251.201797 112.821350,233.410233 112.905304,215.226166 
	C120.454689,232.601303 127.828491,250.368912 135.323624,268.489899 
	C133.931564,268.895630 132.418182,268.947998 130.450562,269.002014 
	C125.308144,269.001526 120.619942,268.999390 115.465569,268.999268 
	C114.556099,268.999695 114.112801,268.998169 113.337067,268.994995 
z"/>
<path fill="#78570E" opacity="1.000000" stroke="none" 
	d="
M300.843353,197.809418 
	C301.739960,199.212418 302.907318,200.778748 302.916718,202.352020 
	C303.039581,222.938782 303.187347,243.529099 302.905975,264.112732 
	C302.793701,272.326233 301.696655,280.530884 300.880066,288.722809 
	C300.799774,289.527954 299.538422,290.215363 298.153534,290.712158 
	C296.038544,290.536835 294.595276,290.606781 293.152008,290.676727 
	C293.155487,291.265228 293.158936,291.853760 293.162384,292.442291 
	C294.756927,292.611511 296.351471,292.780731 297.946014,292.949982 
	C297.946014,292.949982 298.005768,293.001495 298.168488,293.321045 
	C299.552551,294.767456 300.773895,295.894348 301.995239,297.021240 
	C301.995239,297.021240 301.997406,297.511841 301.709320,297.793610 
	C301.278900,298.740143 301.136566,299.404907 300.994232,300.069672 
	C300.994232,300.069672 300.987701,300.515869 300.693512,300.779968 
	C300.279236,301.689240 300.159149,302.334412 300.039062,302.979584 
	C300.240845,303.241180 300.584412,303.482971 300.624115,303.767212 
	C303.128265,321.698578 303.571655,339.714294 302.767792,357.777374 
	C302.754639,358.072510 302.462158,358.355225 301.960602,358.927551 
	C296.849609,356.388062 296.055725,351.672211 295.990082,346.793884 
	C295.863342,337.378601 295.953094,327.960388 295.953094,318.186127 
	C294.047882,318.090271 292.459137,318.010345 290.432617,317.398163 
	C289.984863,312.286560 289.974945,307.707214 290.216370,303.097839 
	C290.636322,303.058624 290.804840,303.049469 291.128784,303.231537 
	C291.703003,303.429810 292.121887,303.436859 292.540741,303.443909 
	C292.495605,303.171051 292.450500,302.898224 292.405396,302.625366 
	C291.952179,302.729370 291.498993,302.833405 291.030884,302.589600 
	C290.339905,301.486511 289.663879,300.731293 288.991394,299.581360 
	C288.991913,298.134216 288.988831,297.081696 289.301697,295.970917 
	C290.078033,295.277527 290.538422,294.642426 290.982635,293.584778 
	C290.643066,285.146973 290.319672,277.131683 289.996246,269.116425 
	C291.798370,268.988892 293.600525,268.861328 295.929749,268.696472 
	C295.929749,265.967468 295.929443,263.344360 295.929779,260.721283 
	C295.931885,244.223541 295.958130,227.725769 295.921814,211.228104 
	C295.910828,206.232468 296.878815,201.640457 300.843353,197.809418 
M296.600281,304.679474 
	C295.983276,304.272308 295.366241,303.865143 294.749237,303.457947 
	C294.623016,304.042297 294.496826,304.626678 294.370605,305.211029 
	C295.079407,305.243225 295.788208,305.275421 296.600281,304.679474 
z"/>
<path fill="#6F510D" opacity="1.000000" stroke="none" 
	d="
M289.964996,303.127869 
	C289.974945,307.707214 289.984863,312.286560 289.994263,317.316345 
	C284.301819,317.821350 278.609894,317.875946 272.455872,317.849243 
	C271.797241,313.667786 271.600800,309.567627 271.075867,304.915649 
	C270.623230,304.025970 270.499054,303.688019 270.374908,303.350098 
	C270.916504,301.550507 271.895477,299.758331 271.926270,297.950043 
	C272.084534,288.648132 271.999329,279.342133 271.998230,269.576355 
	C277.689117,269.062317 283.380920,269.009460 289.534485,269.036499 
	C290.319672,277.131683 290.643066,285.146973 290.656189,293.583282 
	C289.892517,294.679291 289.439148,295.354248 288.985748,296.029205 
	C288.988831,297.081696 288.991913,298.134216 288.768951,299.767914 
	C289.016937,301.275360 289.490967,302.201630 289.964996,303.127869 
z"/>
<path fill="#7C5D18" opacity="1.000000" stroke="none" 
	d="
M297.971069,292.625702 
	C296.351471,292.780731 294.756927,292.611511 293.162384,292.442291 
	C293.158936,291.853760 293.155487,291.265228 293.152008,290.676727 
	C294.595276,290.606781 296.038544,290.536835 297.742126,290.733459 
	C298.000366,291.433807 297.998230,291.867615 297.971069,292.625702 
z"/>
<path fill="#7C5D18" opacity="1.000000" stroke="none" 
	d="
M301.860107,296.691986 
	C300.773895,295.894348 299.552551,294.767456 298.199890,293.344849 
	C299.287384,294.153687 300.506165,295.258209 301.860107,296.691986 
z"/>
<path fill="#7C5D18" opacity="1.000000" stroke="none" 
	d="
M301.231995,299.882812 
	C301.136566,299.404907 301.278900,298.740143 301.710022,298.038910 
	C301.822418,298.566925 301.646088,299.131439 301.231995,299.882812 
z"/>
<path fill="#7C5D18" opacity="1.000000" stroke="none" 
	d="
M300.147247,302.723236 
	C300.159149,302.334412 300.279236,301.689240 300.688354,301.003052 
	C300.736725,301.463623 300.496094,301.965271 300.147247,302.723236 
z"/>
<path fill="#976E11" opacity="1.000000" stroke="none" 
	d="
M369.970001,318.100311 
	C366.946838,318.040680 363.923676,317.981018 360.451599,317.393555 
	C360.001373,305.699677 359.907227,294.532501 360.044464,283.368134 
	C360.099243,278.909668 360.664642,274.457489 361.344330,269.848816 
	C365.684418,268.367706 371.092255,269.065857 371.036530,262.333374 
	C370.913910,247.513962 371.049866,232.692368 370.909943,217.873276 
	C370.897644,216.570816 369.633301,215.280182 368.950500,213.984055 
	C374.688782,208.882950 380.427032,203.781830 386.501862,198.546875 
	C386.892059,219.978989 386.883057,241.545441 387.053650,263.110474 
	C387.086548,267.270020 385.001221,268.745209 381.360931,268.972198 
	C379.873322,269.064972 378.375671,268.996063 376.041870,269.001862 
	C370.931763,268.898438 369.951416,271.439911 369.970917,275.138306 
	C370.044495,289.091858 370.000153,303.046051 369.993317,317.275085 
	C369.981079,317.733582 369.975525,317.916931 369.970001,318.100311 
z"/>
<path fill="#916910" opacity="1.000000" stroke="none" 
	d="
M368.644928,214.121918 
	C369.633301,215.280182 370.897644,216.570816 370.909943,217.873276 
	C371.049866,232.692368 370.913910,247.513962 371.036530,262.333374 
	C371.092255,269.065857 365.684418,268.367706 360.971985,269.927551 
	C359.502350,272.380402 358.135590,274.591553 358.102020,276.822815 
	C357.896759,290.469147 357.993835,304.120056 357.990173,317.769470 
	C354.627533,317.819794 351.264923,317.870117 347.450012,317.388306 
	C346.998474,303.254669 347.077026,289.652527 346.951324,276.052277 
	C346.914917,272.111572 347.635895,269.561768 352.184418,268.531189 
	C354.093262,268.098724 356.760101,265.046539 356.770081,263.173004 
	C356.831757,251.609161 356.233826,240.041763 355.855164,228.475555 
	C360.016541,223.736969 364.177948,218.998383 368.644928,214.121918 
M355.971802,302.941925 
	C355.971802,298.712646 355.971802,294.483337 355.971802,290.254059 
	C355.131927,290.279724 354.292053,290.305420 353.452179,290.331116 
	C353.452179,294.919464 353.452179,299.507782 353.452179,304.096130 
	C354.235504,303.989227 355.018799,303.882324 355.971802,302.941925 
z"/>
<path fill="#8C650F" opacity="1.000000" stroke="none" 
	d="
M355.556427,228.663147 
	C356.233826,240.041763 356.831757,251.609161 356.770081,263.173004 
	C356.760101,265.046539 354.093262,268.098724 352.184418,268.531189 
	C347.635895,269.561768 346.914917,272.111572 346.951324,276.052277 
	C347.077026,289.652527 346.998474,303.254669 346.997742,317.309326 
	C344.293579,317.815125 341.589355,317.867767 338.440430,317.842041 
	C337.706390,312.398346 337.151886,307.031281 337.186249,301.667999 
	C337.246613,292.234711 337.532074,282.795959 338.075989,273.379852 
	C338.161774,271.894897 339.803833,269.903961 341.239258,269.214050 
	C344.463867,267.664154 346.152405,265.649261 346.040588,261.960815 
	C345.879852,256.658569 346.088837,251.345200 345.935516,246.042496 
	C345.897522,244.728699 345.072327,243.437653 344.205505,242.029007 
	C347.620605,237.564819 351.439148,233.207779 355.556427,228.663147 
z"/>
<path fill="#DED8CA" opacity="1.000000" stroke="none" 
	d="
M269.959930,303.344086 
	C270.499054,303.688019 270.623230,304.025970 270.759644,304.633606 
	C268.656036,304.903320 266.540222,304.903320 264.197327,304.903320 
	C264.197327,300.275146 264.197327,295.768311 264.197327,291.261444 
	C264.722382,291.239777 265.247467,291.218079 265.772522,291.196411 
	C265.772522,293.925232 265.952057,296.669159 265.724304,299.378815 
	C265.474121,302.354919 266.421631,303.799286 269.959930,303.344086 
z"/>
<path fill="#A37612" opacity="1.000000" stroke="none" 
	d="
M393.987640,317.576477 
	C391.301117,317.998688 388.601044,317.998627 385.451080,317.998047 
	C384.667511,304.639984 384.241180,291.283875 384.034271,277.924347 
	C383.906952,269.703461 384.767853,269.006073 393.561218,269.000732 
	C393.992188,285.052216 393.983124,301.103210 393.987640,317.576477 
z"/>
<path fill="#9B7113" opacity="1.000000" stroke="none" 
	d="
M370.000000,317.000000 
	C370.000153,303.046051 370.044495,289.091858 369.970917,275.138306 
	C369.951416,271.439911 370.931763,268.898438 375.601227,269.002106 
	C375.667206,275.971344 375.333160,282.941437 374.661621,290.643982 
	C374.549255,295.965302 374.774445,300.554230 374.999634,305.143127 
	C375.633240,309.173309 376.266846,313.203491 376.548584,317.616516 
	C374.131104,317.666229 372.065552,317.333130 370.000000,317.000000 
z"/>
<path fill="#986F13" opacity="1.000000" stroke="none" 
	d="
M369.993317,317.275085 
	C372.065552,317.333130 374.131104,317.666229 376.598938,317.999084 
	C379.371063,317.999512 381.740936,318.000275 384.554779,318.001129 
	C384.813416,324.502045 384.628021,331.002899 384.129944,337.795471 
	C379.280396,331.635956 374.743591,325.184723 370.088379,318.416901 
	C369.975525,317.916931 369.981079,317.733582 369.993317,317.275085 
z"/>
<path fill="#E4D8BD" opacity="1.000000" stroke="none" 
	d="
M375.332581,304.897095 
	C374.774445,300.554230 374.549255,295.965302 374.660858,291.101440 
	C375.557770,292.616364 376.117920,294.406281 376.829834,296.681122 
	C378.195709,296.840302 380.193878,297.073151 382.192017,297.306030 
	C382.220398,297.638641 382.248749,297.971222 382.277130,298.303833 
	C380.349243,298.641174 378.421326,298.978516 376.336243,299.343384 
	C376.111938,301.118500 375.888763,302.884796 375.332581,304.897095 
z"/>
<path fill="#C0BFBB" opacity="1.000000" stroke="none" 
	d="
M96.124657,291.407654 
	C95.367447,292.680298 94.248024,293.788513 94.153755,294.977997 
	C93.894203,298.252930 94.064087,301.561890 94.064087,304.857391 
	C93.516068,304.869812 92.968048,304.882233 92.420029,304.894684 
	C92.172295,300.273315 91.924553,295.651947 91.679085,291.072845 
	C92.390121,291.038574 93.862625,290.967651 95.679398,290.697174 
	C96.213669,290.762177 96.403679,291.026733 96.593689,291.291260 
	C96.472519,291.287598 96.351357,291.283936 96.124657,291.407654 
z"/>
<path fill="#C1BEB8" opacity="1.000000" stroke="none" 
	d="
M115.027641,291.542664 
	C115.982025,292.696869 116.932442,294.309265 118.372086,296.751617 
	C119.101646,296.833893 121.067421,297.055573 123.033203,297.277252 
	C123.067169,297.613831 123.101135,297.950409 123.135094,298.286987 
	C121.242149,298.618744 119.349197,298.950500 117.631042,299.251648 
	C117.026436,301.207275 116.454163,303.058319 115.468781,304.886047 
	C115.045006,300.575439 115.034340,296.288177 115.027641,291.542664 
z"/>
<path fill="#CFCBC2" opacity="1.000000" stroke="none" 
	d="
M174.107849,291.516998 
	C175.060440,292.806915 175.965271,294.555115 177.103043,296.753357 
	C178.017792,296.753357 179.639420,296.753357 181.617279,296.753357 
	C181.826981,295.145020 182.050293,293.432251 182.273605,291.719482 
	C182.437225,291.726959 182.600845,291.734436 182.764465,291.741882 
	C182.764465,295.951935 182.764465,300.162018 182.764465,304.372070 
	C182.588013,304.383209 182.411560,304.394379 182.235107,304.405548 
	C182.095016,302.800049 181.954926,301.194519 181.785950,299.257935 
	C180.083862,299.257935 178.349350,299.257935 176.600739,299.257935 
	C176.064651,301.126099 175.519363,303.026337 174.564072,304.933960 
	C174.122726,300.619385 174.091415,296.297333 174.107849,291.516998 
z"/>
<path fill="#976F16" opacity="1.000000" stroke="none" 
	d="
M358.322876,317.847168 
	C357.993835,304.120056 357.896759,290.469147 358.102020,276.822815 
	C358.135590,274.591553 359.502350,272.380402 360.625244,270.081177 
	C360.664642,274.457489 360.099243,278.909668 360.044464,283.368134 
	C359.907227,294.532501 360.001373,305.699677 360.003937,317.319580 
	C359.555328,317.823944 359.105438,317.874420 358.322876,317.847168 
z"/>
<path fill="#75653F" opacity="1.000000" stroke="none" 
	d="
M210.877380,290.385681 
	C214.700836,295.058350 213.289856,300.377106 211.590378,305.786255 
	C210.456833,304.115173 209.689499,302.349243 209.194611,300.083313 
	C209.615555,299.053711 209.764053,298.524170 209.912567,297.994598 
	C210.174271,295.576874 210.436005,293.159149 210.877380,290.385681 
z"/>
<path fill="#4D390C" opacity="1.000000" stroke="none" 
	d="
M205.735229,293.149445 
	C205.039703,296.964020 204.128067,300.493134 203.216446,304.022278 
	C202.995041,304.020233 202.773651,304.018219 202.552246,304.016205 
	C202.552246,299.567383 202.552246,295.118591 202.552246,289.496063 
	C203.975510,291.111725 204.747314,291.987885 205.735229,293.149445 
z"/>
<path fill="#75653F" opacity="1.000000" stroke="none" 
	d="
M208.995010,298.983490 
	C208.493149,298.557587 207.991287,298.131714 207.489426,297.705811 
	C207.901505,297.660797 208.313599,297.615784 208.871780,298.029358 
	C209.017883,298.487946 208.995010,298.983490 208.995010,298.983490 
z"/>
<path fill="#4D390C" opacity="1.000000" stroke="none" 
	d="
M208.989578,299.196472 
	C208.995010,298.983490 209.017883,298.487946 209.047775,298.241577 
	C209.077667,297.995239 209.495865,297.996490 209.704224,297.995544 
	C209.764053,298.524170 209.615555,299.053711 209.211746,299.708984 
	C208.956436,299.834656 208.984146,299.409454 208.989578,299.196472 
z"/>
<path fill="#7C5D18" opacity="1.000000" stroke="none" 
	d="
M296.548645,304.993530 
	C295.788208,305.275421 295.079407,305.243225 294.370605,305.211029 
	C294.496826,304.626678 294.623016,304.042297 294.749237,303.457947 
	C295.366241,303.865143 295.983276,304.272308 296.548645,304.993530 
z"/>
<path fill="#7C5D18" opacity="1.000000" stroke="none" 
	d="
M290.216370,303.097839 
	C289.490967,302.201630 289.016937,301.275360 288.765381,300.162598 
	C289.663879,300.731293 290.339905,301.486511 291.012512,302.615173 
	C291.009094,302.988556 290.973389,303.040314 290.973389,303.040314 
	C290.804840,303.049469 290.636322,303.058624 290.216370,303.097839 
z"/>
<path fill="#7C5D18" opacity="1.000000" stroke="none" 
	d="
M289.301697,295.970917 
	C289.439148,295.354248 289.892517,294.679291 290.672363,294.005829 
	C290.538422,294.642426 290.078033,295.277527 289.301697,295.970917 
z"/>
<path fill="#7C5D18" opacity="1.000000" stroke="none" 
	d="
M291.027435,302.963013 
	C291.498993,302.833405 291.952179,302.729370 292.405396,302.625366 
	C292.450500,302.898224 292.495605,303.171051 292.540741,303.443909 
	C292.121887,303.436859 291.703003,303.429810 291.128784,303.231537 
	C290.973389,303.040314 291.009094,302.988556 291.027435,302.963013 
z"/>
<path fill="#976F16" opacity="1.000000" stroke="none" 
	d="
M355.886963,303.358643 
	C355.018799,303.882324 354.235504,303.989227 353.452179,304.096130 
	C353.452179,299.507782 353.452179,294.919464 353.452179,290.331116 
	C354.292053,290.305420 355.131927,290.279724 355.971802,290.254059 
	C355.971802,294.483337 355.971802,298.712646 355.886963,303.358643 
z"/>
</svg>